<?xml version="1.0" encoding="UTF-8"?> <svg xmlns="http://www.w3.org/2000/svg" xmlns:xlink="http://www.w3.org/1999/xlink" width="975.209" height="649.325" viewBox="0 0 975.209 649.325"><defs><radialGradient id="radial-gradient" cx="0.5" cy="0.5" r="0.5" gradientUnits="objectBoundingBox"><stop offset="0" stop-color="#295682"></stop><stop offset="1" stop-color="#0e243a"></stop></radialGradient><linearGradient id="linear-gradient" x1="0.771" y1="1.8" x2="0.483" y2="0.409" gradientUnits="objectBoundingBox"><stop offset="0.01"></stop><stop offset="0.99" stop-opacity="0"></stop></linearGradient><linearGradient id="linear-gradient-2" x1="0.704" y1="1.48" x2="0.416" y2="0.086" xlink:href="#linear-gradient"></linearGradient><linearGradient id="linear-gradient-3" x1="1.311" y1="0.739" x2="-0.285" y2="0.089" gradientUnits="objectBoundingBox"><stop offset="0.01"></stop><stop offset="0.15" stop-opacity="0.478"></stop><stop offset="0.99" stop-opacity="0"></stop></linearGradient><linearGradient id="linear-gradient-4" x1="1.555" y1="0.877" x2="-0.117" y2="0.226" xlink:href="#linear-gradient"></linearGradient><linearGradient id="linear-gradient-5" x1="0.494" y1="0.497" x2="0.364" y2="0.857" gradientUnits="objectBoundingBox"><stop offset="0" stop-color="#ecc4d7"></stop><stop offset="0.42" stop-color="#efd4d1"></stop><stop offset="1" stop-color="#f2eac9"></stop></linearGradient><linearGradient id="linear-gradient-6" x1="0.538" y1="0.467" x2="0.88" y2="0.817" gradientUnits="objectBoundingBox"><stop offset="0" stop-color="#ecc4d7"></stop><stop offset="0.83" stop-color="#f2eac9"></stop></linearGradient><linearGradient id="linear-gradient-7" x1="0" y1="0.5" x2="1" y2="0.5" xlink:href="#linear-gradient-5"></linearGradient><linearGradient id="linear-gradient-10" x1="0.947" y1="0.232" x2="-0.002" y2="0.714" xlink:href="#linear-gradient-6"></linearGradient><linearGradient id="linear-gradient-11" x1="0.701" y1="0.097" x2="0.398" y2="0.789" xlink:href="#linear-gradient"></linearGradient><linearGradient id="linear-gradient-12" x1="-0.051" y1="0.65" x2="1.398" y2="0.257" xlink:href="#linear-gradient"></linearGradient><linearGradient id="linear-gradient-13" x1="0.382" y1="0.928" x2="0.642" y2="0.005" xlink:href="#linear-gradient"></linearGradient><linearGradient id="linear-gradient-14" x1="0.513" y1="0.281" x2="0.461" y2="0.929" xlink:href="#linear-gradient"></linearGradient><linearGradient id="linear-gradient-15" x1="0.65" y1="2.438" x2="0.383" y2="-0.544" xlink:href="#linear-gradient"></linearGradient><linearGradient id="linear-gradient-16" y1="0.5" x2="1" y2="0.5" gradientUnits="objectBoundingBox"><stop offset="0" stop-color="#183866"></stop><stop offset="1" stop-color="#1a7fc1"></stop></linearGradient><clipPath id="clip-path"><path id="Path_3147" data-name="Path 3147" d="M293.612,184.547s.809,10.2-2.037,15.895-14.291,11.43-24.088,16.733-23.669,4.494-29.377,13.467-5.3,24.073-5.3,24.073-8.988,13.886-16.328,26.125-11.43,24.9-2.037,31.79,20.808-3.266,26.935-13,11.834-20.808,11.834-20.808,7.817,37.9,5.708,48.147-6.936,20-6.936,24.565,3.67,7.76,9.392,8.973,25.3,2.89,38.769,2.052,51.832-3.266,53.464-8.583,4.075-42.035,4.075-42.035,24.073,8.164,31.428-6.517,7.745-47.684,2.442-64.085-18.785-22.441-26.934-26.515-30.6-14.7-34.68-19.189-5.332-26.6-5.332-33.943-.809-.4-8.569,5.3S293.612,184.547,293.612,184.547Z" transform="translate(-208.982 -158.514)" fill="#fff" stroke="#263238" stroke-linecap="round" stroke-linejoin="round" stroke-width="1"></path></clipPath><clipPath id="clip-path-2"><path id="Path_3161" data-name="Path 3161" d="M359.422,202.191c-6.358-3.193-21.415-10.346-29.665-15.461-2.717,8.15-10.693,26.877-26.646,26.877-14.71,0-19.03-13.756-20.23-21.458-4.884,4.335-13.164,8.5-20.533,12.485-9.783,5.3-23.669,4.494-29.377,13.467s-5.3,24.073-5.3,24.073-3.035,4.7-7.008,11.011c16.487-.824,27.455,13.077,27.455,13.077s7.716,37.9,5.607,48.147-6.936,20-6.936,24.565,3.67,7.76,9.392,8.973,25.3,2.89,38.769,2.052,51.832-3.266,53.464-8.583,4.075-42.035,4.075-42.035l-2.442-32.238c20.5-13.554,34.839-4.06,39.535,0,1.011-13.857-.145-28.9-3.222-38.379C381.053,212.393,367.586,206.266,359.422,202.191Z" transform="translate(-220.66 -186.73)" fill="#ffc100" stroke="#263238" stroke-linecap="round" stroke-linejoin="round" stroke-width="1"></path></clipPath><clipPath id="clip-path-3"><path id="Path_3169" data-name="Path 3169" d="M216.112,265.984s-4.031,2.139-7.225,9.927-7.225,22.253-3.222,26.819,13.149.535,21.675-.535S271.6,280.2,277.5,276.706s10.736-4.826,12.615-8.049,1.344-14.753,1.6-20.389-1.069-30.85-1.069-30.85-1.878-6.17-5.1-5.635c0,0-3.757-2.139-4.552,0l-1.618,4.335s-3.482-1.069-4.335.809a23.829,23.829,0,0,0-1.069,5.635s-4.017,1.878-4.017,4.335.795,16.906.795,20.923-.535,10.2.809,12.875,2.688,5.1,2.688,5.1-19.594,2.688-27.9,2.688-22.8.26-25.489,1.6" transform="translate(-203.992 -210.832)" fill="#fff" stroke="#263238" stroke-linecap="round" stroke-linejoin="round" stroke-width="1"></path></clipPath><clipPath id="clip-path-4"><path id="Path_3174" data-name="Path 3174" d="M357.793,278.75c-12.875-8.309-39.708-1.878-48.291-2.413s-32.454-13.684-32.454-13.684,4.826-4.826,5.086-7.774,0-11,0-15.562,1.344-9.118,1.618-12.6-4.335-1.084-5.1,0-2.688,11.791-2.688,11.791-2.413-7.225-2.413-8.034-.535-10.736-1.878-14.768-4.552,0-4.552,0c-.275-2.413-1.084-4.335-2.962-4.335s-3.482,6.719-3.482,6.719c0-4.031-1.344-3.757-2.688-2.428s-1.329,10.2-1.329,10.2l-1.618-2.413c-1.878-.535-2.89,2.413-2.89,5.1s1.069,10.722,1.069,17.427a50.218,50.218,0,0,0,.809,10.2,41.124,41.124,0,0,0,5.9,13.149c4.566,6.7,19.854,15.013,29.246,22.253s37.02,19.319,50.7,21.472,23.12,7.225,26.284,1.344,9.118-34.882,6.17-44.534" transform="translate(-252.15 -211.37)" fill="#fff" stroke="#263238" stroke-linecap="round" stroke-linejoin="round" stroke-width="1"></path></clipPath><clipPath id="clip-path-5"><path id="Path_3183" data-name="Path 3183" d="M259.244,335.949a30.837,30.837,0,0,1-8.049-5.361c-3.208-3.222,0-11.271-4.335-14.45s-12.875-4.335-14.45.549-2.688,8.049-5.91,9.118-6.965,1.069-12.875,3.757-5.9,12.34-5.9,12.34a163.285,163.285,0,0,1,33.235,8.049c15.562,5.9,22.527,2.673,22.527,2.673S264.084,341.8,259.244,335.949Z" transform="translate(-207.73 -313.385)" fill="#fff" stroke="#263238" stroke-linecap="round" stroke-linejoin="round" stroke-width="1"></path></clipPath><clipPath id="clip-path-6"><path id="Path_3195" data-name="Path 3195" d="M292.3,340.875c-6.979-1.618-7.514,0-24.146-.549s-34.867-6.43-34.867-6.43-1.561.231-5.4-1.546c-2.774,2.4-6.1,6.257-6.4,11.2a15.143,15.143,0,0,0,4.552,10.982c2.89.766,5.679,1.445,8.323,1.893,11.806,2.153,26.284,7.514,33.8,10.736a46.846,46.846,0,0,0,19.319,4.335c5.9,0,3.6.881,7.9-.2s2.818-4.089,2.818-4.089a18.887,18.887,0,0,0,5.375-1.069c3.208-1.084,2.139-5.375,2.139-5.375a16.1,16.1,0,0,0,6.185-1c3.28-1.72,3.28-5.332,1.864-8.67C311.618,346.034,299.278,342.479,292.3,340.875Z" transform="translate(-221.479 -332.35)" fill="#fff" stroke="#263238" stroke-linecap="round" stroke-linejoin="round" stroke-width="1"></path></clipPath><clipPath id="clip-path-7"><path id="Path_3204" data-name="Path 3204" d="M264.4,124.286s-10.2,9.378-9.378,19.58-2.456,15.895-1.228,23.264,2.89,21.675,5.78,25.3,3.266,7.76,6.127,9.8,12.658,2.037,14.7-1.228,23.669-15.895,25.3-20.4,1.228-5.708,1.228-5.708,14.276-8.569,12.239-15.895-7.76-10.2-11.025-7.745-3.67,3.67-3.67,3.67-8.54-5.621-6.907-10.924,6.734-7.124,5.1-13.251-13.843-3.063-26.833-2.066C265.587,129.43,268.954,120.529,264.4,124.286Z" transform="translate(-253.517 -123.357)" fill="#fff" stroke="#263238" stroke-linecap="round" stroke-linejoin="round" stroke-width="1"></path></clipPath></defs><g id="intelligence" transform="translate(0 0)"><g id="g22"><path id="path24" d="M-705.888,135.859c47.318,85.341,182.241,86.578,450.16,85.568,299.442-1.13,449.162-1.7,492.944-89.289,59.322-118.682-107.792-305.22-137.651-338.55C-59.174-383.6-310.172-470.2-367.337-407.311c-41.331,45.468,44.346,140.813-5.581,206.48-52.893,69.57-175.884-2.159-269.724,70.686-74.6,57.91-106.363,188.235-63.246,266" transform="translate(725.354 427.739)" fill="url(#radial-gradient)"></path></g><g id="vr-glasses" transform="translate(42.697 110.168)"><path id="Path_2064" data-name="Path 2064" d="M205.085,310.872c-10.446,5.715-20.883,13.076-25.437,24.068-6.446,15.607,1.215,34.044,13.415,45.728,24.322,23.291,61.435,25.383,95.11,25.445q76.057.146,152.038-4.377c15.476-.923,31.183-2.038,45.782-7.284,20-7.192,36.452-21.591,52.235-35.821,7.838-7.061,15.907-14.553,19.56-24.445,7.292-19.722-5.5-41.367-21.122-55.435a134.077,134.077,0,0,0-90.526-34.083c-1.446,4.615,3.608,8.461,7.984,10.484,13.968,6.446,28.952,10.892,41.928,19.168s24.091,21.63,24.291,37.013c.277,20.568-18.268,36.275-36.629,45.544C441.141,378.368,392,382.3,344.308,382.607c-28.775.208-58.22-.885-85.08-11.23-5.677-2.184-11.769-5.384-13.622-11.184-1.377-4.284-.038-8.969,1.831-13.076a52.3,52.3,0,0,1,30.952-27.583c9.23-3.008,19.56-3.546,27.36-9.315,6.154-4.554,10.176-15.861,3.315-21.153-6.223-4.8-24.46-1.115-31.537-.431a189.573,189.573,0,0,0-72.442,22.237Z" transform="translate(-113.947 -50.607)" fill="#e88d4e" opacity="0.57"></path><path id="Path_2065" data-name="Path 2065" d="M161.692,19.454l104.663,42.2a8.523,8.523,0,0,1,5.33,7.9V248.111a8.515,8.515,0,0,1-11.884,7.823L152.885,209.959a8.515,8.515,0,0,1-5.115-7.93l2.223-174.782a8.515,8.515,0,0,1,11.7-7.792Z" transform="translate(-107.129 1.517)" fill="#47eb5d"></path><path id="Path_2093" data-name="Path 2093" d="M333.975,235.966c3.138,12.392,17.691,17.453,30.1,20.383,31.183,7.361,56.789,5.677,88.287-.215,14.153-2.646,35.906-3.454,53.02,1.285,1.538.438,5.477-12.945,4.492-14.253-.685-.908-13.7-2.408-14.815-2.615-9.838-1.785-34.375-1.123-44.313,0-23.914,2.723-51.7-27.745-60.52-5.454C388.933,238.373,331.382,225.7,333.975,235.966Z" transform="translate(-150.088 -46.504)" fill="#ffa261" opacity="0.57"></path><path id="Path_2066" data-name="Path 2066" d="M152.811,21.943l104.609,42.2a8.53,8.53,0,0,1,5.384,7.892V250.6a8.523,8.523,0,0,1-11.884,7.823L144,212.44a8.53,8.53,0,0,1-5.154-7.93l2.223-174.782a8.515,8.515,0,0,1,11.738-7.784Zm338.442-3.338,103.379,41.69a9.169,9.169,0,0,1,5.746,8.461V245.9a9.176,9.176,0,0,1-12.8,8.461L482.023,208.925a9.184,9.184,0,0,1-5.553-8.546L478.677,27a9.184,9.184,0,0,1,12.576-8.4Z" transform="translate(-105.07 1.72)" fill="#3abe4c"></path><path id="Path_2067" data-name="Path 2067" d="M584.545,23.417,687.862,65.091a9.169,9.169,0,0,1,5.746,8.507V250.712a9.176,9.176,0,0,1-12.8,8.461L575.245,213.791a9.169,9.169,0,0,1-5.546-8.546L571.9,31.87a9.184,9.184,0,0,1,12.646-8.453Z" transform="translate(-204.515 0.616)" fill="#73fc85"></path><path id="Path_2068" data-name="Path 2068" d="M152.811,22.95l104.609,42.2a8.53,8.53,0,0,1,5.384,7.892V251.606a8.523,8.523,0,0,1-11.884,7.823L144,213.447a8.53,8.53,0,0,1-5.154-7.93l2.223-174.782a8.515,8.515,0,0,1,11.738-7.784Z" transform="translate(-105.07 0.713)" fill="url(#linear-gradient)"></path><path id="Path_2069" data-name="Path 2069" d="M584.545,23.417,687.862,65.091a9.169,9.169,0,0,1,5.746,8.507V250.712a9.176,9.176,0,0,1-12.8,8.461L575.245,213.791a9.169,9.169,0,0,1-5.546-8.546L571.9,31.87a9.184,9.184,0,0,1,12.646-8.453Z" transform="translate(-204.515 0.616)" fill="url(#linear-gradient-2)"></path><path id="Path_2070" data-name="Path 2070" d="M506.05,265.557l-20.768,1.585-2.446-12.461c-1.708-3.746,2.446,12.461-8.846,73.573l-6.507-1.477-68.635-15.553L415.5,223.537l-29.021-1.961,4.907-27.275,14.438,1.231s25.945-2.708,45.267,0,32.952,3.392,42.113,12.822S506.05,265.557,506.05,265.557Z" transform="translate(-162.226 -38.983)" fill="#3abe4c"></path><path id="Path_2071" data-name="Path 2071" d="M488.809,267.062c-1.708-3.746,2.446,12.461-8.846,73.573l-6.507-1.477-6.83-1.538s7.207-16.922,3.161-20-23.945,4.377-41.775,5.992-15.561-3.361-15.561-3.361,16.307-14.83,43.913-22.868,28.914-49.443,28.914-49.443Z" transform="translate(-168.199 -51.363)" fill="url(#linear-gradient-3)"></path><path id="Path_2072" data-name="Path 2072" d="M456.48,199.829s17.414.723,23.906-4.469l5.438,3.031s-1.484,10.415-10,11.8S456.465,211.105,456.48,199.829Z" transform="translate(-178.383 -39.227)" fill="#68e1fd"></path><path id="Path_2073" data-name="Path 2073" d="M456.48,199.829s17.414.723,23.906-4.469l5.438,3.031s-1.484,10.415-10,11.8S456.465,211.105,456.48,199.829Z" transform="translate(-178.383 -39.227)" fill="url(#linear-gradient-4)"></path><path id="Path_2074" data-name="Path 2074" d="M431.055,313.677,413.172,307.7s-2.108,1.392,1.023,3.7a43.773,43.773,0,0,1,3.8,3.238Z" transform="translate(-168.227 -65.157)" fill="url(#linear-gradient-5)"></path><path id="Path_2075" data-name="Path 2075" d="M457.709,185.253c.392-3.077.546-6.484,2.523-8.915a14.1,14.1,0,0,1,4.307-3.161l13.022-7.23c1.585-.877,3.307-1.785,5.1-1.538a2.308,2.308,0,0,1,1.2.462c.869.715.731,2.069.515,3.184q-1.984,10.084-3.992,20.168a21.791,21.791,0,0,1-1.623,5.53,12.092,12.092,0,0,1-11.115,6.323,14.361,14.361,0,0,1-9.684-4.538C455.04,192.468,457.232,189.06,457.709,185.253Z" transform="translate(-178.381 -32.074)" fill="url(#linear-gradient-6)"></path><path id="Path_2076" data-name="Path 2076" d="M486.405,314.808a21.823,21.823,0,0,0,7.253-2.384c4.507-2.415,11.73-6.723,13.138-10.153,2.069-5.069,1.723-15.33,1.723-15.33l-20.768,1.585s.177,6.561-1.538,6.792-56.866,14.038-56.866,14.038-8.53-2.761-16.014.115-18.514,9.569-15.707,13.076a4.669,4.669,0,0,0,3.508,1.692c2.431.077,1.477,2.915,2.938,3.992,1.954,1.438,21.368,2.923,28.014-3.977C433.785,322.5,474.029,316.592,486.405,314.808Z" transform="translate(-164.696 -60.365)" fill="url(#linear-gradient-7)"></path><path id="Path_2077" data-name="Path 2077" d="M377.836,168.568l-3.446,19.114a85.248,85.248,0,0,0-10.438-6.407c-6.107-3.169-20.376-43.074-20.376-43.074s-1.5-7.13-5.984-9.553-4.261-10.253-4.261-12.792h0c0-2.531-2.308-6.438-4.561-9.538s0-4.723,0-4.723,5.823,5.523,5.93,4.838-2.908-8.246-4.615-10.146-1.608-5.046-.685-5.507,10,11.392,10,11.392a29.183,29.183,0,0,0-2.192-8.638c-1.838-4.023-1.377-8.515,0-7.823s7.138,13.845,7.138,11.33-4.615-15.468-.923-14.092c1.377.515,2.877,3.184,4.377,7.277,2.5,6.853,4.977,17.691,6.769,29.114C357.452,137.531,377.836,168.568,377.836,168.568Z" transform="translate(-148.675 -13.258)" fill="url(#linear-gradient-7)"></path><path id="Path_2078" data-name="Path 2078" d="M349.909,107.684s-3.907-4.523-6.792-3.931.577,5.307.577,5.307,2.415,4.146,1.269,7.023-1.954,9.323-1.615,9.553-2.531,2.884-5.638-3.907a17.222,17.222,0,0,0-4.369-5.884c0-2.531-2.308-6.438-4.561-9.538s0-4.723,0-4.723,5.823,5.523,5.93,4.838-2.908-8.246-4.615-10.146-1.608-5.046-.685-5.507,10,11.392,10,11.392a29.182,29.182,0,0,0-2.192-8.638c-1.838-4.023-1.377-8.515,0-7.823s7.138,13.845,7.138,11.33-4.615-15.468-.923-14.092c1.377.515,2.877,3.184,4.377,7.277C347.84,90.216,350.255,102.615,349.909,107.684Z" transform="translate(-148.677 -13.256)" fill="url(#linear-gradient-7)"></path><path id="Path_2079" data-name="Path 2079" d="M495.794,493.848l-28.037,19.314c-4.207-8.138,11.292-23.46,11.292-23.46S455.2,452.127,445.9,427.021c-7.084-19.045-10-38.806-21.114-38.644-3.531.054-7.884,2.115-13.468,6.846-23.183,19.614-15.884,86.226-15.884,86.226l-6.923,3.923h0l-27.821,15.691-1.177-6.7c-1.108-15.014,19.276-22.145,19.276-22.145a515.673,515.673,0,0,1,0-65.381c2.377-32.714,13.845-60.527,13.845-60.527l61.8,14.007,9.015,2.038c-.508,64.119,31.8,130.454,32.329,131.477Z" transform="translate(-155.993 -74.068)" fill="#3f3d56"></path><path id="Path_2080" data-name="Path 2080" d="M484.575,137.565a36.98,36.98,0,0,1-2.023,7.592,1.361,1.361,0,0,1,1.269.692c1.461,2.438-1.954,10.6-6.415,9.676-2.484,4.131-5.323,8.161-9.176,11.053-8.63,6.477-21.953,5.592-29.645-1.946-5.669-5.546-8.092-13.784-8.046-21.714.054-9.23,2.538-23.9,8.353-31.475s18.222-4.661,25.852-2.054c5.9,2.015,11.853,4.777,15.676,9.7C484.4,124.212,485.506,131.15,484.575,137.565Z" transform="translate(-172.396 -18.738)" fill="url(#linear-gradient-10)"></path><path id="Path_2081" data-name="Path 2081" d="M432.71,93.831c1.8-2.461,1.046-5.854,1.277-8.892.277-3.607,2.569-7.392,6.154-7.969a30.06,30.06,0,0,1,4.554.077c3.077,0,5.969-1.538,8.869-2.623s6.292-1.792,9.015-.308c1.685.915,2.861,2.538,4.3,3.846a12.63,12.63,0,0,0,7.83,3.077c2.308.077,4.661-.5,7-.515s4.915.692,6.153,2.661c1.362,2.1.815,4.854,1.277,7.315.346,1.823,1.761,2.954,3.354,3.923s3.361,1.777,4.469,3.269a7.131,7.131,0,0,1,.838,6.046,18.406,18.406,0,0,1-2.908,5.561c-.769,1.131-1.638,2.4-1.431,3.761.269,1.815,2.208,2.8,3.369,4.215a5.83,5.83,0,0,1-1.923,8.576,11.735,11.735,0,0,0-2.846,1.323c-1.884,1.631-1.092,5.061-2.969,6.7-1.538,1.369-4.207.546-5.484-1.108s-4.223-5.861-4.523-7.93c-.538-3.338,1.3-4.831-1-7.307-2.692-2.884-6.792-3.846-10.446-5.307-4.515-1.838-10.061-1.461-14.53-3.407-3.946-1.723-9.676-3.461-13.676-5.061S435.071,97.423,432.71,93.831Z" transform="translate(-172.897 -11.048)" fill="#3f3d56"></path><path id="Path_2082" data-name="Path 2082" d="M491.869,139.39l10,6.207s-2.954,8.33-5.307,9.23L484.3,149.543Z" transform="translate(-184.804 -26.309)" fill="#3abe4c"></path><path id="Path_2083" data-name="Path 2083" d="M491.869,139.39l10,6.207s-2.954,8.33-5.307,9.23L484.3,149.543Z" transform="translate(-184.804 -26.309)" fill="url(#linear-gradient-11)"></path><path id="Path_2084" data-name="Path 2084" d="M426.655,100.32s-13.245.231-16.484,4.838-6.361,19.883-6.361,19.883l45.244,19.883s5.984,2.615,11.161-1.085,14.115-6.707,13.745-11.422,3.292-9.538-4.077-13.215S431.539,110.435,426.655,100.32Z" transform="translate(-166.226 -17.291)" fill="#68e1fd"></path><path id="Path_2085" data-name="Path 2085" d="M426.655,100.32s-13.245.231-16.484,4.838-6.361,19.883-6.361,19.883l45.244,19.883s5.984,2.615,11.161-1.085,14.115-6.707,13.745-11.422,3.292-9.538-4.077-13.215S431.539,110.435,426.655,100.32Z" transform="translate(-166.226 -17.291)" fill="url(#linear-gradient-12)"></path><path id="Path_2086" data-name="Path 2086" d="M410.163,106.61s45.1,16.614,47,18.207-1.038,13.33-3.8,19.022-7.507,3.431-7.507,3.431l-40.9-16.03s-2.654-1.723,0-10.7S409.064,108.733,410.163,106.61Z" transform="translate(-166.219 -18.743)" fill="#68e1fd"></path><path id="Path_2087" data-name="Path 2087" d="M410.163,106.61s45.1,16.614,47,18.207-1.038,13.33-3.8,19.022-7.507,3.431-7.507,3.431l-40.9-16.03s-2.654-1.723,0-10.7S409.064,108.733,410.163,106.61Z" transform="translate(-166.219 -18.743)" fill="url(#linear-gradient-13)"></path><path id="Path_2088" data-name="Path 2088" d="M402.907,119.133c.354-1.246,2.423-2.446,3.638-1.992,9.807,3.669,47.759,18.576,51.951,18.576,4.807,0,15.215-2.115,15.215-2.115a5.662,5.662,0,0,1,0,2.677c-.392,1.038-12.561,5.769-17.83,4.892-4.615-.769-42.467-13.745-51.474-17.13-1.069-.4-2.061-2.892-1.754-4Z" transform="translate(-165.946 -21.151)" fill="#68e1fd"></path><path id="Path_2089" data-name="Path 2089" d="M402.907,119.133c.354-1.246,2.423-2.446,3.638-1.992,9.807,3.669,47.759,18.576,51.951,18.576,4.807,0,15.215-2.115,15.215-2.115a5.662,5.662,0,0,1,0,2.677c-.392,1.038-12.561,5.769-17.83,4.892-4.615-.769-42.467-13.745-51.474-17.13-1.069-.4-2.061-2.892-1.754-4Z" transform="translate(-165.946 -21.151)" fill="url(#linear-gradient-14)"></path><path id="Path_2090" data-name="Path 2090" d="M387.941,219.14h19.445a8.307,8.307,0,0,1,8.161,9.892l-.046.254-29.021-1.961Z" transform="translate(-162.226 -44.716)" fill="url(#linear-gradient-15)"></path><path id="Path_2091" data-name="Path 2091" d="M503.434,498.035c-40.052-42.128-41.367-133.516-41.367-133.516l9.015,2.038C470.6,430.678,502.9,497.012,503.434,498.035Zm-71-105.456c-3.531.054-7.884,2.115-13.469,6.846-23.183,19.614-15.884,86.226-15.884,86.226l-6.923,3.923h0c-5.8-34.906-6.153-64.919,11.669-88.857C414.854,391.218,431.369,392.465,432.438,392.58Z" transform="translate(-163.64 -78.272)" fill="#25233a"></path><path id="Path_2092" data-name="Path 2092" d="M258.156,520.617c-2.561,4.854-3.507,10.83-7.692,14.384s-10.907,3.769-14.615,7.969c-4.615,5.246-1.654,14.107,4.107,18.045s13.153,4.323,20.122,4.569l189.266,6.761c13.192.469,27.56.585,38.059-7.407,12.838-9.761,14.615-31.021,3.538-42.759,5.623-.477,11.476-1.038,16.3-3.977s8.215-9.038,6.207-14.315c-2.546-6.669-11.269-7.992-18.407-8.123C447.707,494.9,402.5,505.3,355.673,507.7,329.9,509.01,273.37,491.78,258.156,520.617Z" transform="translate(-126.935 -108.553)" opacity="0.19" fill="url(#linear-gradient-16)"></path></g><g id="freepik--Character--inject-10" transform="translate(363.587 99.66)"><path id="Path_3143" data-name="Path 3143" d="M284.5,297.772s-7.514,2.153-30.576,1.618-56.354-11.271-69.215-11.271-26.848,4.826-32.194,15.563-10.2,24.146,20.923,36.486,54.722,16.1,99.256,27.354,62.235,11.806,85.254,5.91,38.624-20.923,36.486-41.9-6.979-33.8-18.236-37.021S284.5,297.772,284.5,297.772Z" transform="translate(3.014 82.963)" fill="#0577af" stroke="#263238" stroke-linecap="round" stroke-linejoin="round" stroke-width="1"></path><path id="Path_3144" data-name="Path 3144" d="M293.612,184.547s.809,10.2-2.037,15.895-14.291,11.43-24.088,16.733-23.669,4.494-29.377,13.467-5.3,24.073-5.3,24.073-8.988,13.886-16.328,26.125-11.43,24.9-2.037,31.79,20.808-3.266,26.935-13,11.834-20.808,11.834-20.808,7.817,37.9,5.708,48.147-6.936,20-6.936,24.565,3.67,7.76,9.392,8.973,25.3,2.89,38.769,2.052,51.832-3.266,53.464-8.583,4.075-42.035,4.075-42.035,24.073,8.164,31.428-6.517,7.745-47.684,2.442-64.085-18.785-22.441-26.934-26.515-30.6-14.7-34.68-19.189-5.332-26.6-5.332-33.943-.809-.4-8.569,5.3S293.612,184.547,293.612,184.547Z" transform="translate(29.893 25.29)" fill="#fff"></path><g id="Group_852" data-name="Group 852" transform="translate(238.875 183.805)" clip-path="url(#clip-path)"><path id="Path_3145" data-name="Path 3145" d="M365.5,241.262c-5.3-16.314-18.785-22.441-26.934-26.515s-30.6-14.7-34.68-19.189-5.332-26.53-5.332-33.87-.809-.4-8.569,5.3-22.441,17.557-22.441,17.557a53.226,53.226,0,0,1,0,6.95c4.638,2.009,10.78,4.335,14.2,4.335,5.968,0,7.76,4.176,10.115,8.352s-1.792,8.944-1.792,8.944,19.088,1.2,25.648,2.977,23.857,4.176,34.593,13.135c8.482,7.052,14.349,20.042,18.207,28.437A78.026,78.026,0,0,0,365.5,241.262Z" transform="translate(-182.925 -158.514)" fill="#ffc100"></path><path id="Path_3146" data-name="Path 3146" d="M365.5,241.262c-5.3-16.314-18.785-22.441-26.934-26.515s-30.6-14.7-34.68-19.189-5.332-26.53-5.332-33.87-.809-.4-8.569,5.3-22.441,17.557-22.441,17.557a53.226,53.226,0,0,1,0,6.95c4.638,2.009,10.78,4.335,14.2,4.335,5.968,0,7.76,4.176,10.115,8.352s-1.792,8.944-1.792,8.944,19.088,1.2,25.648,2.977,23.857,4.176,34.593,13.135c8.482,7.052,14.349,20.042,18.207,28.437A78.026,78.026,0,0,0,365.5,241.262Z" transform="translate(-182.925 -158.514)" fill="#fff" opacity="0.6"></path></g><path id="Path_3148" data-name="Path 3148" d="M293.612,184.547s.809,10.2-2.037,15.895-14.291,11.43-24.088,16.733-23.669,4.494-29.377,13.467-5.3,24.073-5.3,24.073-8.988,13.886-16.328,26.125-11.43,24.9-2.037,31.79,20.808-3.266,26.935-13,11.834-20.808,11.834-20.808,7.817,37.9,5.708,48.147-6.936,20-6.936,24.565,3.67,7.76,9.392,8.973,25.3,2.89,38.769,2.052,51.832-3.266,53.464-8.583,4.075-42.035,4.075-42.035,24.073,8.164,31.428-6.517,7.745-47.684,2.442-64.085-18.785-22.441-26.934-26.515-30.6-14.7-34.68-19.189-5.332-26.6-5.332-33.943-.809-.4-8.569,5.3S293.612,184.547,293.612,184.547Z" transform="translate(29.893 25.29)" fill="none" stroke="#263238" stroke-linecap="round" stroke-linejoin="round" stroke-width="1"></path><path id="Path_3149" data-name="Path 3149" d="M333.307,162.08c3.266-6.112,8.164-16.733,1.633-24.073s-10.606-2.89-11.43-10.2-2.442-15.1-9.8-15.1-12.644,2.89-17.138,0-8.164-11.025-19.594-11.025-11.415,17.557-13.467,19.594a10.519,10.519,0,0,1-3.338,1.6,2.977,2.977,0,0,1-1.965-1.6c-2.037-4.075,3.67-3.67,6.127-9.8s-4.494-10.2-9.392-6.531,5.3,3.266-.4,9.392-8.973,13.467-3.728,22.484,11.43,3.67,11.43,3.67c1.214-.809,2.312,3.786,13.193,5.78,10.361,1.893,17.441-1.445,18.265,9.941s10.982,17.759,13.843,19.392-4.494,10.621-2.89,14.7,6.936,3.67,10.2,3.266,1.228-5.3,8.164-6.127,9.378-2.89,12.239-10.606S330.041,168.207,333.307,162.08Z" transform="translate(47.333 0)" fill="#263238" stroke="#263238" stroke-linecap="round" stroke-linejoin="round" stroke-width="1"></path><path id="Path_3150" data-name="Path 3150" d="M306.12,136.146a5.086,5.086,0,0,0,3.526-.9" transform="translate(73.118 14.938)" fill="none" stroke="#fff" stroke-linecap="round" stroke-linejoin="round" stroke-width="1"></path><path id="Path_3151" data-name="Path 3151" d="M288.77,125.044s7.225-5.78,11.444,1.445c2.586,4.335,5.953,10.115,9.624,13.207" transform="translate(65.398 9.423)" fill="none" stroke="#fff" stroke-linecap="round" stroke-linejoin="round" stroke-width="1"></path><path id="Path_3152" data-name="Path 3152" d="M286.3,138.492a51.775,51.775,0,0,1,13.583-.722c6.43.722,5.78,5.78,12.86,5.78" transform="translate(64.299 15.988)" fill="none" stroke="#fff" stroke-linecap="round" stroke-linejoin="round" stroke-width="1"></path><path id="Path_3153" data-name="Path 3153" d="M265.65,119.47a13.353,13.353,0,0,0,2.023,1.994" transform="translate(55.11 7.916)" fill="none" stroke="#fff" stroke-linecap="round" stroke-linejoin="round" stroke-width="1"></path><path id="Path_3154" data-name="Path 3154" d="M295.951,124.3s-1.85,6.286-9-2.283-12.109-18.5-20.23-9.985A8.309,8.309,0,0,0,264,119.039" transform="translate(54.358 3.159)" fill="none" stroke="#fff" stroke-linecap="round" stroke-linejoin="round" stroke-width="1"></path><path id="Path_3155" data-name="Path 3155" d="M253.6,122.549a16.488,16.488,0,0,1-1.445-4.609" transform="translate(49.107 7.235)" fill="none" stroke="#fff" stroke-linecap="round" stroke-linejoin="round" stroke-width="1"></path><path id="Path_3156" data-name="Path 3156" d="M265.5,127.163s-6.864.809-11.184-4.263" transform="translate(50.068 9.443)" fill="none" stroke="#fff" stroke-linecap="round" stroke-linejoin="round" stroke-width="1"></path><path id="Path_3157" data-name="Path 3157" d="M359.422,202.191c-6.358-3.193-21.415-10.346-29.665-15.461-2.717,8.15-10.693,26.877-26.646,26.877-14.71,0-19.03-13.756-20.23-21.458-4.884,4.335-13.164,8.5-20.533,12.485-9.783,5.3-23.669,4.494-29.377,13.467s-5.3,24.073-5.3,24.073-3.035,4.7-7.008,11.011c16.487-.824,27.455,13.077,27.455,13.077s7.716,37.9,5.607,48.147-6.936,20-6.936,24.565,3.67,7.76,9.392,8.973,25.3,2.89,38.769,2.052,51.832-3.266,53.464-8.583,4.075-42.035,4.075-42.035l-2.442-32.238c20.5-13.554,34.839-4.06,39.535,0,1.011-13.857-.145-28.9-3.222-38.379C381.053,212.393,367.586,206.266,359.422,202.191Z" transform="translate(35.09 37.846)" fill="#ffc100"></path><g id="Group_853" data-name="Group 853" transform="translate(255.75 224.576)" clip-path="url(#clip-path-2)"><path id="Path_3158" data-name="Path 3158" d="M365.5,241.262c-5.3-16.314-18.785-22.441-26.934-26.515s-30.6-14.7-34.68-19.189-5.332-26.53-5.332-33.87-.809-.4-8.569,5.3-22.441,17.557-22.441,17.557a53.226,53.226,0,0,1,0,6.95c4.638,2.009,10.78,4.335,14.2,4.335,5.968,0,7.76,4.176,10.115,8.352s-1.792,8.944-1.792,8.944,19.088,1.2,25.648,2.977,23.857,4.176,34.593,13.135c8.482,7.052,14.349,20.042,18.207,28.437A78.026,78.026,0,0,0,365.5,241.262Z" transform="translate(-199.799 -199.285)" opacity="0.15"></path><path id="Path_3159" data-name="Path 3159" d="M308.34,198s-5.968,11.329-17.34,14.912a39.564,39.564,0,0,1-20.23,1.2s8.352,4.768,20.88,1.792S308.34,198,308.34,198Z" transform="translate(-198.362 -181.715)" opacity="0.15"></path><path id="Path_3160" data-name="Path 3160" d="M337.169,237.085s.592,19.088-6.56,23.857-29.824,8.944-38.769,6.56-17.34-14.912-25.648-12.528-22.672,17.9-22.672,17.9l.592,10.736,25.648-12.528s17.34,10.115,36.385,22.657,1.2,15.519,1.2,15.519l-23.857,8.944s15.5-5.968,27.455-5.968,4.176,2.384,4.176,2.384h22.657l.477,4.74,4.335-29.189-1.2-35.2S340.16,231.117,337.169,237.085Z" transform="translate(-210.488 -164.749)" opacity="0.15"></path></g><path id="Path_3162" data-name="Path 3162" d="M359.422,202.191c-6.358-3.193-21.415-10.346-29.665-15.461-2.717,8.15-10.693,26.877-26.646,26.877-14.71,0-19.03-13.756-20.23-21.458-4.884,4.335-13.164,8.5-20.533,12.485-9.783,5.3-23.669,4.494-29.377,13.467s-5.3,24.073-5.3,24.073-3.035,4.7-7.008,11.011c16.487-.824,27.455,13.077,27.455,13.077s7.716,37.9,5.607,48.147-6.936,20-6.936,24.565,3.67,7.76,9.392,8.973,25.3,2.89,38.769,2.052,51.832-3.266,53.464-8.583,4.075-42.035,4.075-42.035l-2.442-32.238c20.5-13.554,34.839-4.06,39.535,0,1.011-13.857-.145-28.9-3.222-38.379C381.053,212.393,367.586,206.266,359.422,202.191Z" transform="translate(35.09 37.846)" fill="none" stroke="#263238" stroke-linecap="round" stroke-linejoin="round" stroke-width="1"></path><path id="Path_3163" data-name="Path 3163" d="M240.915,250.888s-6.315-19.406-3.641-29.608" transform="translate(42.189 53.22)" fill="none" stroke="#263238" stroke-linecap="round" stroke-linejoin="round" stroke-width="1"></path><path id="Path_3164" data-name="Path 3164" d="M310.478,249.383a47.684,47.684,0,0,1,1.1-22.9" transform="translate(74.656 55.534)" fill="none" stroke="#263238" stroke-linecap="round" stroke-linejoin="round" stroke-width="1"></path><path id="Path_3165" data-name="Path 3165" d="M245.24,300.115s19.854-2.89,33.235-6.055" transform="translate(46.028 85.606)" fill="none" stroke="#263238" stroke-linecap="round" stroke-linejoin="round" stroke-width="1"></path><path id="Path_3166" data-name="Path 3166" d="M216.112,265.984s-4.031,2.139-7.225,9.927-7.225,22.253-3.222,26.819,13.149.535,21.675-.535S271.6,280.2,277.5,276.706s10.736-4.826,12.615-8.049,1.344-14.753,1.6-20.389-1.069-30.85-1.069-30.85-1.878-6.17-5.1-5.635c0,0-3.757-2.139-4.552,0l-1.618,4.335s-3.482-1.069-4.335.809a23.829,23.829,0,0,0-1.069,5.635s-4.017,1.878-4.017,4.335.795,16.906.795,20.923-.535,10.2.809,12.875,2.688,5.1,2.688,5.1-19.594,2.688-27.9,2.688-22.8.26-25.489,1.6" transform="translate(27.673 48.571)" fill="#fff"></path><g id="Group_854" data-name="Group 854" transform="translate(231.666 259.403)" clip-path="url(#clip-path-3)"><path id="Path_3167" data-name="Path 3167" d="M290.133,253.688c.939-1.618,1.286-5.346,1.445-9.378l-12.889,2.8s1.315,5.9-5.91,10.491-46.543,17.7-49.129,18.351,24.926-11.791,14.45-11.141-22.961,11.806-30.171,11.806a11.833,11.833,0,0,1-3.41-.477c-.795,4.942-.737,9.421,1.2,11.56,4.017,4.566,13.149.535,21.675-.535s44.26-21.993,50.155-25.49S288.255,256.867,290.133,253.688Z" transform="translate(-203.972 -195.935)" fill="#ffc100"></path><path id="Path_3168" data-name="Path 3168" d="M290.133,253.688c.939-1.618,1.286-5.346,1.445-9.378l-12.889,2.8s1.315,5.9-5.91,10.491-46.543,17.7-49.129,18.351,24.926-11.791,14.45-11.141-22.961,11.806-30.171,11.806a11.833,11.833,0,0,1-3.41-.477c-.795,4.942-.737,9.421,1.2,11.56,4.017,4.566,13.149.535,21.675-.535s44.26-21.993,50.155-25.49S288.255,256.867,290.133,253.688Z" transform="translate(-203.972 -195.935)" fill="#fff" opacity="0.6"></path></g><path id="Path_3170" data-name="Path 3170" d="M216.112,265.984s-4.031,2.139-7.225,9.927-7.225,22.253-3.222,26.819,13.149.535,21.675-.535S271.6,280.2,277.5,276.706s10.736-4.826,12.615-8.049,1.344-14.753,1.6-20.389-1.069-30.85-1.069-30.85-1.878-6.17-5.1-5.635c0,0-3.757-2.139-4.552,0l-1.618,4.335s-3.482-1.069-4.335.809a23.829,23.829,0,0,0-1.069,5.635s-4.017,1.878-4.017,4.335.795,16.906.795,20.923-.535,10.2.809,12.875,2.688,5.1,2.688,5.1-19.594,2.688-27.9,2.688-22.8.26-25.489,1.6" transform="translate(27.673 48.571)" fill="none" stroke="#263238" stroke-linecap="round" stroke-linejoin="round" stroke-width="1"></path><path id="Path_3171" data-name="Path 3171" d="M357.793,278.75c-12.875-8.309-39.708-1.878-48.291-2.413s-32.454-13.684-32.454-13.684,4.826-4.826,5.086-7.774,0-11,0-15.562,1.344-9.118,1.618-12.6-4.335-1.084-5.1,0-2.688,11.791-2.688,11.791-2.413-7.225-2.413-8.034-.535-10.736-1.878-14.768-4.552,0-4.552,0c-.275-2.413-1.084-4.335-2.962-4.335s-3.482,6.719-3.482,6.719c0-4.031-1.344-3.757-2.688-2.428s-1.329,10.2-1.329,10.2l-1.618-2.413c-1.878-.535-2.89,2.413-2.89,5.1s1.069,10.722,1.069,17.427a50.218,50.218,0,0,0,.809,10.2,41.124,41.124,0,0,0,5.9,13.149c4.566,6.7,19.854,15.013,29.246,22.253s37.02,19.319,50.7,21.472,23.12,7.225,26.284,1.344,9.118-34.882,6.17-44.534" transform="translate(49.103 48.81)" fill="#fff"></path><g id="Group_855" data-name="Group 855" transform="translate(301.253 260.18)" clip-path="url(#clip-path-4)"><path id="Path_3172" data-name="Path 3172" d="M337.459,295.275c13.684,2.139,23.12,7.225,26.284,1.344,2.283-4.176,5.881-19.854,6.777-32.108-2.731,5.419-10.274,19.623-15.086,20.591-5.968,1.185-31.616-5.968-34.607-6.56s37.57-1.792,22.672-5.375-26.241-1.2-44.794-6.56-33.581-9.248-41.254-15.057c4.566,6.7,19.854,15.013,29.246,22.253S323.775,293.122,337.459,295.275Z" transform="translate(-249.792 -193.491)" fill="#ffc100"></path><path id="Path_3173" data-name="Path 3173" d="M337.459,295.275c13.684,2.139,23.12,7.225,26.284,1.344,2.283-4.176,5.881-19.854,6.777-32.108-2.731,5.419-10.274,19.623-15.086,20.591-5.968,1.185-31.616-5.968-34.607-6.56s37.57-1.792,22.672-5.375-26.241-1.2-44.794-6.56-33.581-9.248-41.254-15.057c4.566,6.7,19.854,15.013,29.246,22.253S323.775,293.122,337.459,295.275Z" transform="translate(-249.792 -193.491)" fill="#fff" opacity="0.6"></path></g><path id="Path_3175" data-name="Path 3175" d="M357.793,278.75c-12.875-8.309-39.708-1.878-48.291-2.413s-32.454-13.684-32.454-13.684,4.826-4.826,5.086-7.774,0-11,0-15.562,1.344-9.118,1.618-12.6-4.335-1.084-5.1,0-2.688,11.791-2.688,11.791-2.413-7.225-2.413-8.034-.535-10.736-1.878-14.768-4.552,0-4.552,0c-.275-2.413-1.084-4.335-2.962-4.335s-3.482,6.719-3.482,6.719c0-4.031-1.344-3.757-2.688-2.428s-1.329,10.2-1.329,10.2l-1.618-2.413c-1.878-.535-2.89,2.413-2.89,5.1s1.069,10.722,1.069,17.427a50.218,50.218,0,0,0,.809,10.2,41.124,41.124,0,0,0,5.9,13.149c4.566,6.7,19.854,15.013,29.246,22.253s37.02,19.319,50.7,21.472,23.12,7.225,26.284,1.344,9.118-34.882,6.17-44.534" transform="translate(49.103 48.81)" fill="none" stroke="#263238" stroke-linecap="round" stroke-linejoin="round" stroke-width="1"></path><path id="Path_3176" data-name="Path 3176" d="M268.63,230.19a28.192,28.192,0,0,1,2.153,11.011" transform="translate(56.436 57.185)" fill="none" stroke="#263238" stroke-linecap="round" stroke-linejoin="round" stroke-width="1"></path><path id="Path_3177" data-name="Path 3177" d="M262.51,214.41a66.652,66.652,0,0,1,1.6,10.462c0,3.5.535,11.56.535,11.56" transform="translate(53.713 50.163)" fill="none" stroke="#263238" stroke-linecap="round" stroke-linejoin="round" stroke-width="1"></path><path id="Path_3178" data-name="Path 3178" d="M258.05,216.09s1.069,6.17,1.6,10.115a71.737,71.737,0,0,1,.275,10.187" transform="translate(51.728 50.911)" fill="none" stroke="#263238" stroke-linecap="round" stroke-linejoin="round" stroke-width="1"></path><path id="Path_3179" data-name="Path 3179" d="M255.27,221.47s.795,4.826,1.329,6.979a57.8,57.8,0,0,1,.549,8.583" transform="translate(50.491 53.305)" fill="none" stroke="#263238" stroke-linecap="round" stroke-linejoin="round" stroke-width="1"></path><path id="Path_3180" data-name="Path 3180" d="M259.244,335.949a30.837,30.837,0,0,1-8.049-5.361c-3.208-3.222,0-11.271-4.335-14.45s-12.875-4.335-14.45.549-2.688,8.049-5.91,9.118-6.965,1.069-12.875,3.757-5.9,12.34-5.9,12.34a163.285,163.285,0,0,1,33.235,8.049c15.562,5.9,22.527,2.673,22.527,2.673S264.084,341.8,259.244,335.949Z" transform="translate(29.336 94.205)" fill="#fff"></path><g id="Group_856" data-name="Group 856" transform="translate(237.066 407.59)" clip-path="url(#clip-path-5)"><path id="Path_3181" data-name="Path 3181" d="M249.242,337.161s-9.176-1.315-11.141-4.6,1.3-9.176-3.945-9.176-4.581,3.93-9.176,5.245-11.806-.665-8.525,3.28,16.4,11.791,24.261,13.106S254.487,341.741,249.242,337.161Z" transform="translate(-204.216 -308.932)" fill="#ffc100"></path><path id="Path_3182" data-name="Path 3182" d="M249.242,337.161s-9.176-1.315-11.141-4.6,1.3-9.176-3.945-9.176-4.581,3.93-9.176,5.245-11.806-.665-8.525,3.28,16.4,11.791,24.261,13.106S254.487,341.741,249.242,337.161Z" transform="translate(-204.216 -308.932)" fill="#fff" opacity="0.6"></path></g><path id="Path_3184" data-name="Path 3184" d="M259.244,335.949a30.837,30.837,0,0,1-8.049-5.361c-3.208-3.222,0-11.271-4.335-14.45s-12.875-4.335-14.45.549-2.688,8.049-5.91,9.118-6.965,1.069-12.875,3.757-5.9,12.34-5.9,12.34a163.285,163.285,0,0,1,33.235,8.049c15.562,5.9,22.527,2.673,22.527,2.673S264.084,341.8,259.244,335.949Z" transform="translate(29.336 94.205)" fill="none" stroke="#263238" stroke-linecap="round" stroke-linejoin="round" stroke-width="1"></path><path id="Path_3185" data-name="Path 3185" d="M286.648,363.017a178.929,178.929,0,0,0,23.943-8.005c10.259-4.162,20.634-8.251,30.533-13.207,15.028-7.514,20.389-18.785,16.632-32.729s-10.187-24.68-37.57-19.854-36.052,21.3-47.684,33.8c-14.378,15.389-26.226,23.308-31.66,22.542-6.2-.867-7.514,10.722,1.069,15.028C255.784,367.525,271.606,366.716,286.648,363.017Z" transform="translate(41.842 82.931)" fill="#0577af" stroke="#263238" stroke-linecap="round" stroke-linejoin="round" stroke-width="1"></path><path id="Path_3186" data-name="Path 3186" d="M242.52,338.777s13.106-2.615,26.877-18.351,15.721-18.366,15.721-18.366" transform="translate(44.817 89.166)" fill="none" stroke="#fff" stroke-linecap="round" stroke-linejoin="round" stroke-width="1"></path><path id="Path_3187" data-name="Path 3187" d="M310.66,326.481a51.07,51.07,0,0,0,6.445-6.271" transform="translate(75.138 97.242)" fill="none" stroke="#fff" stroke-linecap="round" stroke-linejoin="round" stroke-width="1"></path><path id="Path_3188" data-name="Path 3188" d="M281.09,344.405s20.316-5.867,36.529-16.675" transform="translate(61.98 100.589)" fill="none" stroke="#fff" stroke-linecap="round" stroke-linejoin="round" stroke-width="1"></path><path id="Path_3189" data-name="Path 3189" d="M180.206,289.277a51.006,51.006,0,0,0-14.45-.665c-12.875,1.069-21.458,9.118-23.6,16.1s5.361,24.68,21.993,36.486,33.8,14.45,56.875,20.923c20.446,5.708,41.9,12.427,40.46,12.051a15.143,15.143,0,0,1-4.552-10.982c.3-4.942,3.627-8.8,6.4-11.2-4.335-1.994-11.459-6.5-22.5-16.7-17.773-16.386-35.922-32.787-46.572-40.329" transform="translate(0 83.077)" fill="#0577af" stroke="#263238" stroke-linecap="round" stroke-linejoin="round" stroke-width="1"></path><path id="Path_3190" data-name="Path 3190" d="M175.627,294.276c-2.977-1.445-4.8-2.2-4.8-2.2" transform="translate(12.916 84.725)" fill="none" stroke="#fff" stroke-linecap="round" stroke-linejoin="round" stroke-width="1"></path><path id="Path_3191" data-name="Path 3191" d="M228.06,332.525s-28.192-22.3-39.332-30.157a118.832,118.832,0,0,0-10.967-6.878" transform="translate(16 86.242)" fill="none" stroke="#fff" stroke-linecap="round" stroke-linejoin="round" stroke-width="1"></path><path id="Path_3192" data-name="Path 3192" d="M292.3,340.875c-6.979-1.618-7.514,0-24.146-.549s-34.867-6.43-34.867-6.43-1.561.231-5.4-1.546c-2.774,2.4-6.1,6.257-6.4,11.2a15.143,15.143,0,0,0,4.552,10.982c2.89.766,5.679,1.445,8.323,1.893,11.806,2.153,26.284,7.514,33.8,10.736a46.846,46.846,0,0,0,19.319,4.335c5.9,0,3.6.881,7.9-.2s2.818-4.089,2.818-4.089a18.887,18.887,0,0,0,5.375-1.069c3.208-1.084,2.139-5.375,2.139-5.375a16.1,16.1,0,0,0,6.185-1c3.28-1.72,3.28-5.332,1.864-8.67C311.618,346.034,299.278,342.479,292.3,340.875Z" transform="translate(35.455 102.644)" fill="#fff"></path><g id="Group_857" data-name="Group 857" transform="translate(256.934 434.994)" clip-path="url(#clip-path-6)"><path id="Path_3193" data-name="Path 3193" d="M294.366,364.9c2.673-.665,3.107-2.1,3.063-3.078a34.374,34.374,0,0,1-4.6.4c-8.525,0-18.351-7.225-34.752-9.84-8.973-1.445-23.25-3.844-34.333-5.78.419.549.838,1.069,1.272,1.546,2.89.766,5.679,1.445,8.323,1.893,11.806,2.153,26.284,7.514,33.8,10.736a46.845,46.845,0,0,0,19.319,4.335C292.358,365.106,290.06,365.958,294.366,364.9Z" transform="translate(-220.469 -326.004)" fill="#ffc100"></path><path id="Path_3194" data-name="Path 3194" d="M294.366,364.9c2.673-.665,3.107-2.1,3.063-3.078a34.374,34.374,0,0,1-4.6.4c-8.525,0-18.351-7.225-34.752-9.84-8.973-1.445-23.25-3.844-34.333-5.78.419.549.838,1.069,1.272,1.546,2.89.766,5.679,1.445,8.323,1.893,11.806,2.153,26.284,7.514,33.8,10.736a46.845,46.845,0,0,0,19.319,4.335C292.358,365.106,290.06,365.958,294.366,364.9Z" transform="translate(-220.469 -326.004)" fill="#fff" opacity="0.6"></path></g><path id="Path_3196" data-name="Path 3196" d="M292.3,340.875c-6.979-1.618-7.514,0-24.146-.549s-34.867-6.43-34.867-6.43-1.561.231-5.4-1.546c-2.774,2.4-6.1,6.257-6.4,11.2a15.143,15.143,0,0,0,4.552,10.982c2.89.766,5.679,1.445,8.323,1.893,11.806,2.153,26.284,7.514,33.8,10.736a46.846,46.846,0,0,0,19.319,4.335c5.9,0,3.6.881,7.9-.2s2.818-4.089,2.818-4.089a18.887,18.887,0,0,0,5.375-1.069c3.208-1.084,2.139-5.375,2.139-5.375a16.1,16.1,0,0,0,6.185-1c3.28-1.72,3.28-5.332,1.864-8.67C311.618,346.034,299.278,342.479,292.3,340.875Z" transform="translate(35.455 102.644)" fill="none" stroke="#263238" stroke-linecap="round" stroke-linejoin="round" stroke-width="1"></path><path id="Path_3197" data-name="Path 3197" d="M282.266,353.74a41.339,41.339,0,0,0-8.106-5.65" transform="translate(58.897 109.648)" fill="none" stroke="#263238" stroke-linecap="round" stroke-linejoin="round" stroke-width="1"></path><path id="Path_3198" data-name="Path 3198" d="M276.386,358.091s-4.826-3.222-5.9-5.361" transform="translate(57.264 111.713)" fill="none" stroke="#263238" stroke-linecap="round" stroke-linejoin="round" stroke-width="1"></path><path id="Path_3199" data-name="Path 3199" d="M270.884,360.468A12.138,12.138,0,0,1,266,355.7" transform="translate(55.266 113.035)" fill="none" stroke="#263238" stroke-linecap="round" stroke-linejoin="round" stroke-width="1"></path><path id="Path_3200" data-name="Path 3200" d="M266.9,360.567a11.3,11.3,0,0,1-6.445-3.757" transform="translate(52.8 113.529)" fill="none" stroke="#263238" stroke-linecap="round" stroke-linejoin="round" stroke-width="1"></path><path id="Path_3201" data-name="Path 3201" d="M264.4,124.286s-10.2,9.378-9.378,19.58-2.456,15.895-1.228,23.264,2.89,21.675,5.78,25.3,3.266,7.76,6.127,9.8,12.658,2.037,14.7-1.228,23.669-15.895,25.3-20.4,1.228-5.708,1.228-5.708,14.276-8.569,12.239-15.895-7.76-10.2-11.025-7.745-3.67,3.67-3.67,3.67-8.54-5.621-6.907-10.924,6.734-7.124,5.1-13.251-13.843-3.063-26.833-2.066C265.587,129.43,268.954,120.529,264.4,124.286Z" transform="translate(49.711 9.646)" fill="#fff"></path><g id="Group_858" data-name="Group 858" transform="translate(303.228 133.003)" clip-path="url(#clip-path-7)"><path id="Path_3202" data-name="Path 3202" d="M313.073,160.348c-2.037-7.34-7.76-10.2-11.025-7.745s-3.67,3.67-3.67,3.67-8.54-5.621-6.907-10.924,6.734-7.124,5.1-13.251-9.681-12.745-22.672-11.748c-2.991.231-5.159.462-6.849.766,5.419-.434,14.782-.4,19.681,4.075,7.225,6.56.607,13.12-1.185,19.7s2.384,15.5,1.185,22.065-7.153,11.329-7.153,19.681.592,11.343-7.225,16.7l-1.532,1.1a5.78,5.78,0,0,0,3.425-2.052c2.037-3.266,23.669-15.895,25.3-20.4s1.228-5.708,1.228-5.708S315.11,167.7,313.073,160.348Z" transform="translate(-247.495 -124.739)" fill="#ffc100"></path><path id="Path_3203" data-name="Path 3203" d="M313.073,160.348c-2.037-7.34-7.76-10.2-11.025-7.745s-3.67,3.67-3.67,3.67-8.54-5.621-6.907-10.924,6.734-7.124,5.1-13.251-9.681-12.745-22.672-11.748c-2.991.231-5.159.462-6.849.766,5.419-.434,14.782-.4,19.681,4.075,7.225,6.56.607,13.12-1.185,19.7s2.384,15.5,1.185,22.065-7.153,11.329-7.153,19.681.592,11.343-7.225,16.7l-1.532,1.1a5.78,5.78,0,0,0,3.425-2.052c2.037-3.266,23.669-15.895,25.3-20.4s1.228-5.708,1.228-5.708S315.11,167.7,313.073,160.348Z" transform="translate(-247.495 -124.739)" fill="#fff" opacity="0.6"></path></g><path id="Path_3205" data-name="Path 3205" d="M264.4,124.286s-10.2,9.378-9.378,19.58-2.456,15.895-1.228,23.264,2.89,21.675,5.78,25.3,3.266,7.76,6.127,9.8,12.658,2.037,14.7-1.228,23.669-15.895,25.3-20.4,1.228-5.708,1.228-5.708,14.276-8.569,12.239-15.895-7.76-10.2-11.025-7.745-3.67,3.67-3.67,3.67-8.54-5.621-6.907-10.924,6.734-7.124,5.1-13.251-13.843-3.063-26.833-2.066C265.587,129.43,268.954,120.529,264.4,124.286Z" transform="translate(49.711 9.646)" fill="none" stroke="#263238" stroke-linecap="round" stroke-linejoin="round" stroke-width="1"></path><path id="Path_3206" data-name="Path 3206" d="M268,148.87s4.465,6.112,11.791,0" transform="translate(56.155 20.999)" fill="none" stroke="#263238" stroke-linecap="round" stroke-linejoin="round" stroke-width="1"></path><path id="Path_3207" data-name="Path 3207" d="M255.4,148.28a4.335,4.335,0,0,0,6.531.419" transform="translate(50.549 20.736)" fill="none" stroke="#263238" stroke-linecap="round" stroke-linejoin="round" stroke-width="1"></path><path id="Path_3208" data-name="Path 3208" d="M270.122,168.928c-3.266.824-7.745-.4-8.164-1.633s2.052-17.152,2.052-17.152l-2.89-4.9s-2.457-3.67-5.78-1.214" transform="translate(50.522 18.469)" fill="none" stroke="#263238" stroke-linecap="round" stroke-linejoin="round" stroke-width="1"></path><line id="Line_19" data-name="Line 19" y1="0.043" x2="9.652" transform="translate(313.304 194.694)" fill="none" stroke="#263238" stroke-linecap="round" stroke-linejoin="round" stroke-width="1"></line><path id="Path_3209" data-name="Path 3209" d="M283.656,145.189a17.614,17.614,0,0,0-18.366-.4" transform="translate(54.95 18.119)" fill="none" stroke="#263238" stroke-linecap="round" stroke-linejoin="round" stroke-width="1"></path><path id="Path_3210" data-name="Path 3210" d="M299.647,150.023s-1.705-4.422-5.115-3.063-4.089,5.78-4.089,5.78,2.731-1.026,2.731,2.384-3.063,2.037-3.063,2.037" transform="translate(65.994 20.033)" fill="none" stroke="#263238" stroke-linecap="round" stroke-linejoin="round" stroke-width="1"></path></g></g></svg> 