<?xml version="1.0" encoding="UTF-8"?> <svg xmlns="http://www.w3.org/2000/svg" xmlns:xlink="http://www.w3.org/1999/xlink" width="975.209" height="705.515" viewBox="0 0 975.209 705.515"><defs><radialGradient id="radial-gradient" cx="0.5" cy="0.5" r="0.5" gradientUnits="objectBoundingBox"><stop offset="0" stop-color="#295682"></stop><stop offset="1" stop-color="#0e243a"></stop></radialGradient></defs><g id="journey" transform="translate(0 0)"><g id="g22"><path id="path24" d="M-705.888,135.859c47.318,85.341,182.241,86.578,450.16,85.568,299.442-1.13,449.162-1.7,492.944-89.289,59.322-118.682-107.792-305.22-137.651-338.55C-59.174-383.6-310.172-470.2-367.337-407.311c-41.331,45.468,44.346,140.813-5.581,206.48-52.893,69.57-175.884-2.159-269.724,70.686-74.6,57.91-106.363,188.235-63.246,266" transform="translate(725.354 427.739)" fill="url(#radial-gradient)"></path></g><g id="Internet_on_the_go-rafiki" data-name="Internet on the go-rafiki" transform="translate(56.676 9.866)"><g id="freepik--background-complete--inject-40" transform="translate(0 55)"><rect id="Rectangle_107" data-name="Rectangle 107" width="845.857" height="0.423" transform="translate(0 553.867)" fill="#e0e0e0"></rect><rect id="Rectangle_108" data-name="Rectangle 108" width="27.423" height="0.423" transform="translate(596.448 571.782)" fill="#e0e0e0"></rect><rect id="Rectangle_109" data-name="Rectangle 109" width="63.541" height="0.423" transform="translate(636.27 571.985)" fill="#e0e0e0"></rect><rect id="Rectangle_110" data-name="Rectangle 110" width="66.383" height="0.423" transform="translate(456.34 579.649)" fill="#e0e0e0"></rect><rect id="Rectangle_111" data-name="Rectangle 111" width="104.632" height="0.423" transform="translate(293.665 564.982)" fill="#e0e0e0"></rect><rect id="Rectangle_112" data-name="Rectangle 112" width="71.83" height="0.423" transform="translate(127.589 568.737)" fill="#e0e0e0"></rect><path id="Path_1990" data-name="Path 1990" d="M374.506,533.417H47.853a9.66,9.66,0,0,1-9.643-9.66V64.575A9.66,9.66,0,0,1,47.853,55H374.506a9.66,9.66,0,0,1,9.66,9.66v459.1a9.66,9.66,0,0,1-9.66,9.657ZM47.853,55.338a9.237,9.237,0,0,0-9.22,9.237V523.757a9.237,9.237,0,0,0,9.22,9.237H374.506a9.254,9.254,0,0,0,9.237-9.237V64.575a9.254,9.254,0,0,0-9.237-9.237Z" transform="translate(26.43 -55)" fill="#e0e0e0"></path><path id="Path_1991" data-name="Path 1991" d="M590.83,533.417H264.16a9.677,9.677,0,0,1-9.66-9.66V64.575A9.677,9.677,0,0,1,264.16,55H590.83a9.66,9.66,0,0,1,9.626,9.575V523.757a9.66,9.66,0,0,1-9.626,9.66ZM264.16,55.338a9.254,9.254,0,0,0-9.237,9.237V523.757a9.254,9.254,0,0,0,9.237,9.237H590.83a9.254,9.254,0,0,0,9.237-9.237V64.575a9.254,9.254,0,0,0-9.237-9.237Z" transform="translate(176.041 -55)" fill="#e0e0e0"></path><rect id="Rectangle_114" data-name="Rectangle 114" width="60.259" height="14.955" transform="translate(341.134 76.533)" fill="#e6e6e6"></rect><rect id="Rectangle_115" data-name="Rectangle 115" width="60.259" height="14.955" transform="translate(342.674 76.533)" fill="#f5f5f5"></rect><rect id="Rectangle_118" data-name="Rectangle 118" width="42.242" height="131.869" transform="translate(437.19 132.377) rotate(90)" fill="#e6e6e6"></rect><rect id="Rectangle_119" data-name="Rectangle 119" width="42.242" height="131.869" transform="translate(437.19 186.681) rotate(90)" fill="#e6e6e6"></rect><rect id="Rectangle_120" data-name="Rectangle 120" width="42.242" height="131.869" transform="translate(437.19 240.985) rotate(90)" fill="#e6e6e6"></rect><path id="Path_1993" data-name="Path 1993" d="M266.772,244.794a7.934,7.934,0,1,1-2.33-5.616,7.934,7.934,0,0,1,2.33,5.616Z" transform="translate(173.53 70.795)" fill="#fafafa"></path><rect id="Rectangle_130" data-name="Rectangle 130" width="219.635" height="219.178" transform="translate(510.728 111.078)" fill="#e0e0e0"></rect><rect id="Rectangle_131" data-name="Rectangle 131" width="219.635" height="219.178" transform="translate(515.82 111.078)" fill="#ce661e"></rect><rect id="Rectangle_132" data-name="Rectangle 132" width="219.635" height="10.184" transform="translate(510.728 330.239)" fill="#e88d4e"></rect><rect id="Rectangle_133" data-name="Rectangle 133" width="207.641" height="10.184" transform="translate(545.155 330.239)" fill="#f1a37b"></rect><rect id="Rectangle_134" data-name="Rectangle 134" width="198.607" height="201.314" transform="translate(726.304 121.364) rotate(90)" fill="#febd9c"></rect><path id="Path_1994" data-name="Path 1994" d="M310.33,126.74V325.33h5.921s27.152-64.979,34.731-198.59Z" transform="translate(214.66 -5.376)" fill="#e0e0e0" opacity="0.5"></path><path id="Path_1995" data-name="Path 1995" d="M443.672,126.74V325.33h-5.938s-27.067-64.979-34.714-198.59Z" transform="translate(278.775 -5.376)" fill="#e0e0e0" opacity="0.5"></path><rect id="Rectangle_135" data-name="Rectangle 135" width="198.607" height="3.857" transform="translate(726.304 121.347) rotate(90)" fill="#ce661e"></rect><rect id="Rectangle_136" data-name="Rectangle 136" width="198.607" height="3.857" transform="translate(618.727 121.364) rotate(90)" fill="#e0e0e0"></rect><rect id="Rectangle_137" data-name="Rectangle 137" width="212.056" height="13.804" transform="translate(519.61 213.748)" fill="#e88d4e"></rect><rect id="Rectangle_138" data-name="Rectangle 138" width="212.056" height="13.804" transform="translate(632.549 114.631) rotate(90)" fill="#e88d4e"></rect><rect id="Rectangle_139" data-name="Rectangle 139" width="109.826" height="219.178" transform="translate(107.17 111.078)" fill="#e0e0e0"></rect><rect id="Rectangle_140" data-name="Rectangle 140" width="109.826" height="219.178" transform="translate(112.262 111.078)" fill="#ce661e"></rect><rect id="Rectangle_141" data-name="Rectangle 141" width="109.826" height="10.184" transform="translate(107.17 330.239)" fill="#ce661e"></rect><rect id="Rectangle_142" data-name="Rectangle 142" width="97.832" height="10.184" transform="translate(141.58 330.239)" fill="#e88d4e"></rect><rect id="Rectangle_143" data-name="Rectangle 143" width="198.607" height="91.505" transform="translate(212.919 121.364) rotate(90)" fill="#e88d4e"></rect><path id="Path_1996" data-name="Path 1996" d="M71.77,126.74V325.33h5.938s27.067-64.979,34.714-198.59Z" transform="translate(49.644 -5.376)" fill="#e0e0e0" opacity="0.5"></path><path id="Path_1997" data-name="Path 1997" d="M140.2,126.74V325.33h-5.921S107.213,260.352,99.55,126.74Z" transform="translate(68.86 -5.376)" fill="#e0e0e0" opacity="0.5"></path><rect id="Rectangle_144" data-name="Rectangle 144" width="198.607" height="3.857" transform="translate(212.919 121.347) rotate(90)" fill="#ce661e"></rect><rect id="Rectangle_145" data-name="Rectangle 145" width="102.247" height="13.804" transform="translate(116.052 213.748)" fill="#e88d4e"></rect></g><g id="freepik--Shadow--inject-40" transform="translate(89.958 548.939)" opacity="0.13"><ellipse id="Ellipse_39" data-name="Ellipse 39" cx="328.006" cy="19.15" rx="328.006" ry="19.15" transform="translate(0 0)" fill="#f5f5f5"></ellipse></g></g><g id="freepik--character-2--inject-4" transform="translate(336.242 48.865)"><path id="Path_2159" data-name="Path 2159" d="M360.066,222a53.137,53.137,0,0,1,28.4,27.343c1.879,4.13,3.263,8.736,6.3,12.164,2.272,2.54,5.308,4.316,7.559,6.877,3.986,4.585,4.874,11.008,5.411,17.059,2.21,25.278.867,50.721-.475,76.061-.434,8.116-1.033,16.687-5.721,23.316A29.058,29.058,0,0,1,384.6,395.456c-6.609,1.673-30.482,0-37.3,0l-21.292-73.48Z" transform="translate(-219.546 -90.343)" fill="#e88d4e"></path><path id="Path_2160" data-name="Path 2160" d="M334.729,348.551a6.941,6.941,0,0,0,.227-1.095c.124-.826.289-1.879.475-3.139.392-2.726.847-6.691,1.3-11.606a312.476,312.476,0,0,0-2.726-76.887c-.805-4.874-1.528-8.8-2.065-11.5-.289-1.239-.516-2.272-.7-3.1a3.573,3.573,0,0,0-.31-1.053,4.008,4.008,0,0,0,.1,1.095c.124.847.289,1.879.5,3.139.475,2.705,1.095,6.65,1.776,11.524a365.856,365.856,0,0,1,3.428,38.289,371.413,371.413,0,0,1-.7,38.433c-.351,4.915-.682,8.88-.95,11.627-.1,1.28-.207,2.313-.268,3.16a3.552,3.552,0,0,0-.083,1.115Z" transform="translate(-158.729 -70.989)" fill="#263238"></path><path id="Path_2161" data-name="Path 2161" d="M326.2,271.216a14.186,14.186,0,0,0,5.266,1.632,14.724,14.724,0,0,0,5.473.578,14.456,14.456,0,0,0-5.266-1.632,14.725,14.725,0,0,0-5.473-.578Z" transform="translate(-147.97 -37.973)" fill="#263238"></path><path id="Path_2162" data-name="Path 2162" d="M335.954,226.63a6.2,6.2,0,0,0,.268,1.342c.269.95.6,2.21,1.012,3.738s.991,3.614,1.549,5.927,1.28,4.956,1.879,7.889c1.363,5.865,2.664,12.907,3.883,20.755s2.065,16.522,2.726,25.712.62,17.905.475,25.856-.64,15.1-1.218,21.086c-.227,2.995-.578,5.7-.826,8.075s-.516,4.42-.743,6.092-.372,2.85-.5,3.841a5.989,5.989,0,0,0-.1,1.342,5.269,5.269,0,0,0,.31-1.3l.7-3.821c.289-1.673.62-3.7.929-6.072s.7-5.08.991-8.075c.681-6.01,1.177-13.176,1.446-21.148s.145-16.749-.392-25.939-1.611-17.905-2.809-25.794-2.685-14.911-4.13-20.776c-.661-2.933-1.425-5.555-2.065-7.868s-1.2-4.3-1.735-5.906-.888-2.726-1.2-3.676a5.91,5.91,0,0,0-.455-1.28Z" transform="translate(-180.048 -85.412)" fill="#fff"></path><path id="Path_2163" data-name="Path 2163" d="M327.23,285.163a8.937,8.937,0,0,0,1.012,1.28,39.246,39.246,0,0,0,3.18,3.1,65.115,65.115,0,0,0,25.67,13.589,38.53,38.53,0,0,0,4.337.888,4.316,4.316,0,0,0,1.632,0c0-.165-2.23-.62-5.762-1.735a77.882,77.882,0,0,1-13.321-5.555,81.053,81.053,0,0,1-12.061-7.868C329.006,286.65,327.354,285.04,327.23,285.163Z" transform="translate(-176.219 -23.069)" fill="#263238"></path><path id="Path_2164" data-name="Path 2164" d="M442.407,442.068l.95,66.086-78.477,2.334c.227-7.868,43.658-24.658,43.658-24.658l-1.673-44.319Z" transform="translate(-334.27 143.477)" fill="#44c66a"></path><g id="Group_807" data-name="Group 807" transform="translate(30.61 584.987)" opacity="0.3"><path id="Path_2165" data-name="Path 2165" d="M442.407,442.068l.95,66.086-78.477,2.334c.227-7.868,43.658-24.658,43.658-24.658l-1.673-44.319Z" transform="translate(-364.88 -441.51)"></path></g><g id="Group_808" data-name="Group 808" transform="translate(91.459 624.739)" opacity="0.6"><path id="Path_2166" data-name="Path 2166" d="M374.178,460.782a3.366,3.366,0,0,1,2.334,3.759,3.077,3.077,0,0,1-3.552,2.437,3.552,3.552,0,0,1-2.437-4.006,3.16,3.16,0,0,1,3.965-2.065" transform="translate(-370.469 -460.759)" fill="#fff"></path></g><g id="Group_809" data-name="Group 809" transform="translate(30.565 644.898)" opacity="0.6"><path id="Path_2167" data-name="Path 2167" d="M443.4,477.17l-.392-6.65L367.9,475.249s-3.449,1.693-2.974,4.254Z" transform="translate(-364.88 -470.52)" fill="#fff"></path></g><path id="Path_2168" data-name="Path 2168" d="M378.78,463.518c0,.392,1.941.516,3.862,1.755s2.974,2.891,3.325,2.726-.289-2.478-2.643-3.924S378.677,463.146,378.78,463.518Z" transform="translate(-305.668 166.491)" fill="#263238"></path><path id="Path_2169" data-name="Path 2169" d="M384.694,465.345c0,.392,1.611,1.033,2.953,2.685s1.776,3.449,2.065,3.428.578-2.313-1.136-4.337S384.694,464.973,384.694,465.345Z" transform="translate(-321.763 168.69)" fill="#263238"></path><path id="Path_2170" data-name="Path 2170" d="M392.311,473.665c.351,0,.826-1.941-.207-4.13s-2.871-2.995-3.015-2.643.991,1.487,1.817,3.263S391.939,473.644,392.311,473.665Z" transform="translate(-333.614 170.428)" fill="#263238"></path><path id="Path_2171" data-name="Path 2171" d="M378.163,458.812c.186.351,1.921-.248,4.13-.165s3.883.764,4.13.413-1.466-1.735-4.13-1.817S377.977,458.44,378.163,458.812Z" transform="translate(-304.762 160.231)" fill="#263238"></path><path id="Path_2172" data-name="Path 2172" d="M426.383,442.14l2.664,65.962-78.477,4.4c0-7.868,43-25.794,43-25.794l-2.829-44.278Z" transform="translate(-290.407 144.148)" fill="#44c66a"></path><g id="Group_810" data-name="Group 810" transform="translate(120.39 625.805)" opacity="0.6"><path id="Path_2173" data-name="Path 2173" d="M360.085,461.306a3.387,3.387,0,0,1,2.437,3.7,3.1,3.1,0,0,1-3.49,2.54,3.593,3.593,0,0,1-2.54-3.944,3.18,3.18,0,0,1,3.9-2.21" transform="translate(-356.456 -461.275)" fill="#fff"></path></g><g id="Group_811" data-name="Group 811" transform="translate(60.188 645.601)" opacity="0.6"><path id="Path_2174" data-name="Path 2174" d="M429.022,477.51l-.578-6.65L353.5,477.572s-3.408,1.776-2.871,4.337Z" transform="translate(-350.57 -470.86)" fill="#fff"></path></g><path id="Path_2175" data-name="Path 2175" d="M364.682,464.338c0,.392,1.962.475,3.9,1.652s3.057,2.809,3.408,2.643-.351-2.478-2.747-3.862S364.579,463.967,364.682,464.338Z" transform="translate(-262.575 167.322)" fill="#263238"></path><path id="Path_2176" data-name="Path 2176" d="M370.465,466.286c0,.392,1.611.991,3.015,2.6s1.859,3.408,2.251,3.366.5-2.313-1.28-4.3S370.444,465.894,370.465,466.286Z" transform="translate(-278.415 169.67)" fill="#263238"></path><path id="Path_2177" data-name="Path 2177" d="M378.287,474.618c.351,0,.764-2.065-.33-4.13s-2.933-2.912-3.077-2.581,1.012,1.466,1.9,3.242S377.895,474.6,378.287,474.618Z" transform="translate(-290.203 171.52)" fill="#263238"></path><path id="Path_2178" data-name="Path 2178" d="M364.257,459.633c.165.351,1.9-.31,4.13-.269s3.9.64,4.13.289-1.508-1.693-4.13-1.693S364.051,459.323,364.257,459.633Z" transform="translate(-262.129 161)" fill="#263238"></path><path id="Path_2179" data-name="Path 2179" d="M363.527,457.665a7,7,0,0,0,3.924-.248,16.19,16.19,0,0,0,4.13-1.549,20.1,20.1,0,0,0,2.189-1.384,4.545,4.545,0,0,0,1.115-1.033,1.755,1.755,0,0,0,0-2.065,2.065,2.065,0,0,0-1.714-.826,4.853,4.853,0,0,0-1.466.289,13.266,13.266,0,0,0-2.4,1.012,14,14,0,0,0-3.49,2.705,7.021,7.021,0,0,0-2.065,3.47c.186.1,1.012-1.2,2.767-2.747a15.839,15.839,0,0,1,3.387-2.272,15.1,15.1,0,0,1,2.23-.847c.805-.289,1.528-.33,1.755,0s0,.207,0,.475a3.717,3.717,0,0,1-.826.743A21.74,21.74,0,0,1,371,454.753a21.436,21.436,0,0,1-3.7,1.735,28.322,28.322,0,0,0-3.779,1.177Z" transform="translate(-263.341 153.117)" fill="#263238"></path><path id="Path_2180" data-name="Path 2180" d="M374.162,460.989a6.856,6.856,0,0,0,.826-4.13,14.621,14.621,0,0,0-.785-4.461,14.335,14.335,0,0,0-1.136-2.437,3.3,3.3,0,0,0-2.623-1.941,1.817,1.817,0,0,0-1.569,1.239,5.656,5.656,0,0,0-.33,1.528,10.155,10.155,0,0,0,.145,2.767,9.706,9.706,0,0,0,1.921,4.13c1.632,2.065,3.263,2.437,3.284,2.292a17.336,17.336,0,0,1-2.54-2.871,9.751,9.751,0,0,1-1.446-3.8,9.107,9.107,0,0,1,0-2.375c0-.888.351-1.611.661-1.549a2.852,2.852,0,0,1,1.446,1.28,13.357,13.357,0,0,1,1.095,2.065,15.466,15.466,0,0,1,.991,4.13C374.265,459.4,374.017,460.927,374.162,460.989Z" transform="translate(-273.438 150.412)" fill="#263238"></path><path id="Path_2181" data-name="Path 2181" d="M406.638,340.57l4.192,119.8L411,581.537l-35.707.351L358.148,455.25l-6.9-102.558Z" transform="translate(-273.76 35.957)" fill="#263238"></path><path id="Path_2182" data-name="Path 2182" d="M345.422,326.746l17.988,153.795L379,616.183l43.369-3.284-1.033-131.1,6.381-84.446s26.848-46.116,27.632-55.141-2.52-31.825-2.52-31.825Z" transform="translate(-306.199 3.809)" fill="#263238"></path><path id="Path_2183" data-name="Path 2183" d="M368.391,377.64a11.326,11.326,0,0,0,0,1.673c0,1.177.206,2.767.351,4.771.351,4.254.847,10.326,1.446,17.575,1.3,14.911,3.077,35.356,5.018,57.929s4.13,43.1,5.968,57.825c.888,7.393,1.652,13.382,2.23,17.492.289,2.065.516,3.573.7,4.75a9.542,9.542,0,0,0,.31,1.652,12.391,12.391,0,0,0-.1-1.673l-.5-4.771-1.879-17.533c-1.59-14.787-3.593-35.253-5.659-57.825s-3.965-43-5.328-57.825c-.743-7.311-1.363-13.279-1.8-17.533-.227-2.065-.413-3.573-.558-4.75a7.233,7.233,0,0,0-.207-1.755Z" transform="translate(-282.516 75.443)" fill="#455a64"></path><path id="Path_2184" data-name="Path 2184" d="M345.154,275.147c2.292-6.092,5.844-11.875,6.2-18.36.661-10.326-6.753-20.4-4.13-30.42,1.384-5.328,5.39-9.541,8.034-14.456,3.552-6.237,4.564-13.568,5.617-20.693s2.54-14.456,6.547-20.425,11.338-10.326,18.36-8.756l49.565,2.065c10.223,2.974,16.769,12.887,20.838,22.717s6.712,20.487,13.238,28.913c3.944,5.08,9.479,9.789,9.789,16.212.289,6.092-4.4,11.834-3.242,17.823.661,3.531,3.263,6.34,5.08,9.438a23.915,23.915,0,0,1-.268,24.163c-44.753-5.906-90.022,2.21-134.423,10.326C342.077,288.8,342.862,281.219,345.154,275.147Z" transform="translate(-330.508 -154.56)"></path><path id="Path_2185" data-name="Path 2185" d="M413.393,220.68s-10.987,7.827-12.288,14.456-6.2,68.151-6.2,68.151l14.456,9.706Z" transform="translate(-366.324 -91.75)" fill="#ebebeb"></path><path id="Path_2186" data-name="Path 2186" d="M363.711,193.135c.661-14.7,16.253-29.636,30.978-28.334l47.6,8.261v7.889l-1.26,97.911h0s-3.552,31.639-30.214,30.276c-23.956-1.2-23.068-26.5-23.068-26.517l.434-18.463s-19.351-.454-23.647-24.782C362.307,227.108,362.947,209.471,363.711,193.135Z" transform="translate(-329.321 -151.356)" fill="#ffbe9d"></path><path id="Path_2187" data-name="Path 2187" d="M392.709,188.977a3.18,3.18,0,0,0,3.1,3.118,3.015,3.015,0,0,0,3.18-2.891,3.118,3.118,0,0,0-3.077-3.2,3.015,3.015,0,0,0-3.2,2.974Z" transform="translate(-347.374 -128.693)" fill="#263238"></path><path id="Path_2188" data-name="Path 2188" d="M392.9,185.669c.392.413,2.726-1.4,6.2-1.446s5.886,1.59,6.2,1.177-.227-.909-1.322-1.693a8.612,8.612,0,0,0-5-1.446,8.447,8.447,0,0,0-4.874,1.673C393.048,184.74,392.594,185.483,392.9,185.669Z" transform="translate(-353.971 -132.676)" fill="#263238"></path><path id="Path_2189" data-name="Path 2189" d="M377.38,188.934a3.18,3.18,0,0,0,3.1,3.118,3.015,3.015,0,0,0,3.18-2.891,3.139,3.139,0,0,0-3.077-3.118,3.015,3.015,0,0,0-3.2,2.891Z" transform="translate(-300.385 -128.651)" fill="#263238"></path><path id="Path_2190" data-name="Path 2190" d="M377.036,185.909c.392.413,2.747-1.384,6.2-1.446s5.886,1.611,6.2,1.177-.227-.909-1.322-1.673a8.529,8.529,0,0,0-5.018-1.446,8.261,8.261,0,0,0-4.853,1.652C377.036,185,376.809,185.744,377.036,185.909Z" transform="translate(-305.37 -132.399)" fill="#263238"></path><path id="Path_2191" data-name="Path 2191" d="M396.653,208.022a25.233,25.233,0,0,0-5.493-.785c-.867,0-1.693-.206-1.838-.7a3.311,3.311,0,0,1,.516-2.065c.764-1.8,1.57-3.655,2.416-5.6,3.325-7.972,5.741-14.456,5.349-14.622s-3.387,6.2-6.733,14.209l-2.313,5.617a3.594,3.594,0,0,0-.372,2.871A2.065,2.065,0,0,0,389.631,208a6.627,6.627,0,0,0,1.466.165,27.6,27.6,0,0,0,5.555-.145Z" transform="translate(-336.386 -130.556)" fill="#263238"></path><path id="Path_2192" data-name="Path 2192" d="M373.51,217.713a62.328,62.328,0,0,0,32.651-9.293s-8.1,17.224-32.63,15.365Z" transform="translate(-314.896 -104.809)" fill="#eb996e"></path><path id="Path_2193" data-name="Path 2193" d="M.785,12.14c.764,0,.679-4.552,4.927-7.716S15.31,1.544,15.338.9,14.121.026,11.884,0a13.416,13.416,0,0,0-8.07,2.572A9.63,9.63,0,0,0,.021,9.131C-.121,11.06.5,12.166.785,12.14Z" transform="translate(59.321 99.995) rotate(-135)" fill="#263238"></path><path id="Path_2196" data-name="Path 2196" d="M356.792,186.785c.454-.186,18.69-5.163,17.761,13.321s-19.31,13.734-19.31,13.217S356.792,186.785,356.792,186.785Z" transform="translate(-245.598 -128.649)" fill="#ffbe9d"></path><path id="Path_2197" data-name="Path 2197" d="M358.3,203.457a8.815,8.815,0,0,1,.847.516,3.263,3.263,0,0,0,2.416.165c2.065-.62,3.779-3.635,4.13-6.96a10.593,10.593,0,0,0-.681-4.647,3.738,3.738,0,0,0-2.292-2.6,1.631,1.631,0,0,0-1.941.785c-.268.5-.165.888-.268.909s-.392-.33-.207-1.095a2.23,2.23,0,0,1,.785-1.115,2.437,2.437,0,0,1,1.817-.372,4.543,4.543,0,0,1,3.222,3.036,10.945,10.945,0,0,1,.847,5.2c-.31,3.717-2.4,7.1-5.1,7.745a3.469,3.469,0,0,1-2.912-.64C358.32,203.85,358.237,203.457,358.3,203.457Z" transform="translate(-244.296 -125.496)" fill="#eb996e"></path><path id="Path_2198" data-name="Path 2198" d="M339.161,439.413q11.09-64.847,22.2-129.653l111.52,13.568c4.895,43.225,12.391,79.386,14.332,119.1a26.951,26.951,0,0,1-1.941,11.648,11.978,11.978,0,0,1-8.509,7.559c-9.748,1.652-20.652-13.382-30.214-10.9-7.91,2.065-9.934,14.126-17.926,15.84-9.541,2.065-16.522-12.6-26.125-10.822-4.75.888-7.7,5.473-10.636,9.293s-7.641,7.559-12.164,5.865c-5.906-2.21-6.2-11.627-11.916-14.105-6.505-2.747-12.928,5.555-19.97,5-4.5-.351-7.992-4.5-9.108-8.9a33.045,33.045,0,0,1,.454-13.486Z" transform="translate(-323.111 3.138)" fill="#44c66a"></path><path id="Path_2199" data-name="Path 2199" d="M357.935,321.12c-.289,0,1.115,15.592,3.139,34.737s3.9,34.654,4.13,34.633-1.095-15.592-3.118-34.737S358.245,321.1,357.935,321.12Z" transform="translate(-241.723 15.239)" fill="#263238"></path><path id="Path_2200" data-name="Path 2200" d="M367.875,369.891c.31,0-.1-10.677-.888-23.791s-1.673-23.77-2.065-23.75,0,10.677.909,23.812S367.5,369.911,367.875,369.891Z" transform="translate(-258.663 16.549)" fill="#263238"></path><path id="Path_2201" data-name="Path 2201" d="M385.728,374.172c.31,0,.454-10.8.351-24.1s-.434-24.1-.723-24.1-.454,10.78-.351,24.1S385.439,374.172,385.728,374.172Z" transform="translate(-318.522 20.405)" fill="#263238"></path><path id="Path_2202" data-name="Path 2202" d="M389.763,364.264a184.709,184.709,0,0,0,1.632-19.826,182.04,182.04,0,0,0,.558-19.888,184.693,184.693,0,0,0-1.631,19.826A182.064,182.064,0,0,0,389.763,364.264Z" transform="translate(-334.185 18.892)" fill="#263238"></path><g id="Group_812" data-name="Group 812" transform="translate(103.181 334.046)" opacity="0.3"><path id="Path_2203" data-name="Path 2203" d="M370.715,320c4.006,21.767,5.37,43.555,9.4,65.343.227,1.218.248,2.871-.909,3.325s-2.52-1.115-3.036-2.5l-10.2-27.364c.372,3.717-.413,13.63-3.924,14.147-3.511-15.923-4.709-33.911-6.03-50.143Z" transform="translate(-356.011 -320)"></path></g><path id="Path_2204" data-name="Path 2204" d="M345.355,349.31h.227a1.363,1.363,0,1,1-.227,0Z" transform="translate(-194.839 45.266)" fill="#fff"></path><path id="Path_2205" data-name="Path 2205" d="M351.905,333.86h.227a1.383,1.383,0,1,1-.227,0Z" transform="translate(-214.896 28.809)" fill="#fff"></path><path id="Path_2206" data-name="Path 2206" d="M344.8,367.42h.227a1.384,1.384,0,1,1-.227,0Z" transform="translate(-193.103 64.557)" fill="#fff"></path><path id="Path_2207" data-name="Path 2207" d="M361.925,340.53h.227a1.384,1.384,0,1,1-.227,0Z" transform="translate(-245.609 35.914)" fill="#fff"></path><path id="Path_2208" data-name="Path 2208" d="M353.4,359.09h.227a1.4,1.4,0,1,1-1.26,2.065,1.446,1.446,0,0,1,1.033-2.065Z" transform="translate(-219.782 55.684)" fill="#fff"></path><path id="Path_2209" data-name="Path 2209" d="M379.1,374h.248a1.487,1.487,0,0,1,1.115,2.065,1.466,1.466,0,0,1-2.375,0A1.446,1.446,0,0,1,379.1,374Z" transform="translate(-298.475 71.566)" fill="#fff"></path><path id="Path_2210" data-name="Path 2210" d="M388.16,361.06h.248a1.384,1.384,0,1,1-.248,0Z" transform="translate(-326.055 57.782)" fill="#fff"></path><path id="Path_2211" data-name="Path 2211" d="M374.35,330.29h.248a1.384,1.384,0,1,1-.248,0Z" transform="translate(-283.725 25.006)" fill="#fff"></path><path id="Path_2212" data-name="Path 2212" d="M358.812,371.27h.227a1.384,1.384,0,1,1-1.239,2.065,1.466,1.466,0,0,1,1.012-2.065Z" transform="translate(-236.384 68.658)" fill="#fff"></path><path id="Path_2213" data-name="Path 2213" d="M370.82,360.4h.248a1.384,1.384,0,1,1-.248,0Z" transform="translate(-272.905 57.079)" fill="#fff"></path><path id="Path_2214" data-name="Path 2214" d="M401.811,368.74h.227a1.446,1.446,0,0,1,1.115,2.065,1.384,1.384,0,1,1-1.342-2.065Z" transform="translate(-367.917 65.963)" fill="#fff"></path><path id="Path_2215" data-name="Path 2215" d="M400.727,352.25h.145a1.363,1.363,0,1,1-.227,0Z" transform="translate(-364.314 48.398)" fill="#fff"></path><path id="Path_2216" data-name="Path 2216" d="M392.012,345h.227A1.384,1.384,0,1,1,391,347.065,1.466,1.466,0,0,1,392.012,345Z" transform="translate(-338.148 40.675)" fill="#fff"></path><path id="Path_2217" data-name="Path 2217" d="M386.935,322.6h.227a1.363,1.363,0,1,1-.227,0Z" transform="translate(-322.29 16.815)" fill="#fff"></path><path id="Path_2218" data-name="Path 2218" d="M397.122,329.91h.227a1.384,1.384,0,1,1-1.239,2.065,1.467,1.467,0,0,1,1.012-2.065Z" transform="translate(-353.811 24.602)" fill="#fff"></path><path id="Path_2219" data-name="Path 2219" d="M350.473,322.36h.227a1.487,1.487,0,0,1,1.115,2.065,1.466,1.466,0,0,1-2.375,0,1.446,1.446,0,0,1,1.033-2.065Z" transform="translate(-210.655 16.559)" fill="#fff"></path><path id="Path_2220" data-name="Path 2220" d="M378.375,347.4h.248a1.4,1.4,0,1,1-1.26,2.065,1.446,1.446,0,0,1,1.012-2.065Z" transform="translate(-296.383 43.232)" fill="#fff"></path><path id="Path_2221" data-name="Path 2221" d="M391.974,376.49h.248a1.487,1.487,0,0,1,1.115,2.065,1.466,1.466,0,0,1-2.375,0,1.446,1.446,0,0,1,1.012-2.065Z" transform="translate(-337.924 74.218)" fill="#fff"></path><path id="Path_2222" data-name="Path 2222" d="M369.388,221.075s-.558,22.717,6.092,25.34S417.26,213,417.26,213l16.522,3.47,8.261,151.255S461.5,402.833,461.5,426.871c0,0-69.618,17.182-89.588,12s-27.178-15.881-27.178-15.881l3.16-43.679,4.337-125.171,5.679-25.237Z" transform="translate(-310.795 -99.93)" fill="#e0e0e0"></path><path id="Path_2223" data-name="Path 2223" d="M413.963,217.291s-17.7,49.565-18.587,77.589l-.351,10.326s-6.2-4.358-5.617-16.873,3.18-45.538,10.057-61.687C402.336,219.5,409.916,214.73,413.963,217.291Z" transform="translate(-355.452 -96.105)" fill="#e88d4e"></path><path id="Path_2224" data-name="Path 2224" d="M410.894,214.671s-19.248,5.493-19.929,23.027,13.94,80.543,13.94,80.543l-58.28-9.789s-5.844,28.169-6.2,39.858c0,0,83.847,15.819,95.185,12.722s12.6-18.442,11.565-35.625-9.851-70.217-12.6-82.608S417.379,213.989,410.894,214.671Z" transform="translate(-287.887 -98.173)" fill="#e0e0e0"></path><rect id="Rectangle_130-2" data-name="Rectangle 130" width="16.935" height="105.49" transform="translate(28.607 162.263)" fill="#44c66a"></rect><rect id="Rectangle_131-2" data-name="Rectangle 131" width="16.935" height="4.688" transform="translate(28.586 175.604)" fill="#fff"></rect><rect id="Rectangle_132-2" data-name="Rectangle 132" width="16.935" height="4.688" transform="translate(28.586 251.768)" fill="#fff"></rect><rect id="Rectangle_133-2" data-name="Rectangle 133" width="4.998" height="56.917" transform="translate(34.555 188.966)" fill="#fff"></rect><rect id="Rectangle_134-2" data-name="Rectangle 134" width="10.863" height="74.987" transform="translate(17.992 174.055)" fill="#44c66a"></rect><g id="Group_813" data-name="Group 813" transform="translate(17.992 174.055)" opacity="0.3"><rect id="Rectangle_135-2" data-name="Rectangle 135" width="10.863" height="74.987"></rect></g><path id="Path_2225" data-name="Path 2225" d="M382.838,212.574c-8.86.867-18.587,8.777-22.717,16.666s-3.552,16.522-2.292,25.361c3.47,24.163,3.717,47.768,22.593,64.537l8.88,1.487-11.71-59.147s-3.676-23.192-.454-29.346a30.978,30.978,0,0,1,20.776-14.663S394.031,211.521,382.838,212.574Z" transform="translate(-272.346 -100.517)" fill="#e88d4e"></path><path id="Path_2226" data-name="Path 2226" d="M358.521,168.6c1.2-5.06,6.774-7.1,11.565-8.116,10.14-2.168,20.652-3.3,30.792-.826S420.56,168.7,425,178.7c5.08,11.421,2.726,24.782.268,37.173l-6.65-.124c-2.5,10.429-15.468,9.108-17.781-3.841-.826-4.667-2.705-9.789-6.464-12.391a16.336,16.336,0,0,0-7.683-1.962,34.922,34.922,0,0,1-27.075-21.23A13.114,13.114,0,0,1,358.521,168.6Z" transform="translate(-305.442 -158.25)"></path><path id="Path_2233" data-name="Path 2233" d="M434.5,231.048a4.756,4.756,0,0,0,.165,1.033c.165.661.31,1.714.558,2.995.454,2.685,1.136,6.567,2.065,11.544,1.673,10.016,4.13,24.555,6.588,42.543,1.2,9,2.705,18.876,3.263,29.512a73.44,73.44,0,0,1-.785,16.4,23.13,23.13,0,0,1-2.912,7.91,12.846,12.846,0,0,1-6.547,5.328,21.437,21.437,0,0,1-8.8.785c-3.057-.124-6.2-.413-9.293-.723-6.2-.64-12.6-1.466-19.082-2.4-12.928-1.879-26.29-4.13-39.941-6.464l-19.268-3.47.434.537a176.557,176.557,0,0,1,2.561-20.342c1.136-6.629,2.354-13.114,3.655-19.413l-.578.392,58.3,9.624h.64l-.145-.62c-5.617-24.287-9.665-44.36-11.957-58.424-1.115-7.022-1.879-12.536-2.065-16.315-.207-1.879-.207-3.325-.248-4.3a13.1,13.1,0,0,1,0-1.466v1.466a36.973,36.973,0,0,0,.1,4.316c.186,3.8.867,9.335,1.941,16.377,2.065,14.085,6.072,34.2,11.586,58.528l.5-.516-58.259-9.872h-.5l-.1.475q-1.941,9.5-3.7,19.475a180.4,180.4,0,0,0-2.581,20.466v.475h.454l18.9,3.655c13.651,2.4,27.033,4.605,39.982,6.443,6.485.929,12.866,1.755,19.124,2.4,3.139.31,6.2.578,9.355.7h4.626a14.105,14.105,0,0,0,11.565-6.65,24.143,24.143,0,0,0,3.036-8.261,73.226,73.226,0,0,0,.744-16.625c-.6-10.718-2.065-20.652-3.408-29.574-2.623-18.008-5.122-32.506-6.918-42.522-.909-5-1.652-8.88-2.21-11.5-.268-1.3-.5-2.313-.661-2.974a9.416,9.416,0,0,0-.186-.95Z" transform="translate(-287.78 -86.381)" fill="#263238"></path><path id="Path_2234" data-name="Path 2234" d="M397.844,271.328a5.246,5.246,0,0,1,5.493-.5,4.006,4.006,0,0,0,2.829.165c3.139-.764,6.3-2.23,8.116-.516s8.116,10.14,6.2,12.68a6.526,6.526,0,0,1-5.1,2.416l7.125,9.768,11.73,1.053s3.593,1.962,0,4.13l7.806,1.2a5.638,5.638,0,0,1,0,5.411s-.805,1.384-4.13,1.384a43.193,43.193,0,0,1-4.771-.186s-2.85,3.3-5.1,3.3h-8.405l-12.494-7.951-7.5-8.116a17.946,17.946,0,0,1-5.432-11.441C394.168,279.238,394.375,273.889,397.844,271.328Z" transform="translate(-394.205 -39.551)" fill="#ffbe9d"></path><path id="Path_2235" data-name="Path 2235" d="M418.079,283.012a11.922,11.922,0,0,1-2.292-.62,4.439,4.439,0,0,1-1.776-1.59c-.5-.826-.909-1.838-1.508-2.912a7.042,7.042,0,0,0-2.334-2.561,20.088,20.088,0,0,1-2.065-1.549c-1.095-.971-1.2-1.921-1.363-1.9s-.31,1.157.805,2.437,3.1,2.065,4.13,4.13a32.347,32.347,0,0,0,1.611,2.912,4.749,4.749,0,0,0,2.313,1.755C417.109,283.652,418.141,283.115,418.079,283.012Z" transform="translate(-395.214 -37.212)" fill="#eb996e"></path><path id="Path_2236" data-name="Path 2236" d="M421.99,287.4c-.1-.165-1.384.743-3.717,1.508a17.1,17.1,0,0,1-9.335.5,17.348,17.348,0,0,1-8.1-4.667c-1.714-1.755-2.458-3.139-2.6-3.036a8.076,8.076,0,0,0,2.065,3.552,15.84,15.84,0,0,0,18.256,4.378A8.261,8.261,0,0,0,421.99,287.4Z" transform="translate(-381.797 -26.754)" fill="#eb996e"></path><path id="Path_2237" data-name="Path 2237" d="M421.207,292.211a18.9,18.9,0,0,0-3.635.1,26.5,26.5,0,0,1-8.509-.929,22.281,22.281,0,0,1-7.476-4.13,21.981,21.981,0,0,0-2.767-2.354,8.839,8.839,0,0,0,2.272,2.912,18.586,18.586,0,0,0,7.662,4.564,21.849,21.849,0,0,0,8.88.682A9.273,9.273,0,0,0,421.207,292.211Z" transform="translate(-382.212 -23.343)" fill="#eb996e"></path><path id="Path_2238" data-name="Path 2238" d="M432.251,251.686a4.13,4.13,0,0,1,1.941,5,12.246,12.246,0,0,0-.33,7.063c1.342,5.018,6.96,7.476,6.96,7.476L436.3,296.274a103.477,103.477,0,0,0-12.825-5.535c-3.862-1.012-7.393-.165-9.4-1.012s-13.589-4.13-13.589-4.13-6.526-1.508-6.877-3.841.351-3.7,2.85-3.7c0,0-6.877-3.18-6.691-5.535s1.156-4.874,2.85-4.874c0,0-4.13-3.676-2.871-5.865a4.482,4.482,0,0,1,5.37-2.52c2.354.682,1.693-.33,1.693-.33s-5.2-2.52-4.543-4.358,2.065-4.688,5.039-3.862,14.085,6.712,18.773,6.877,7.393.165,10.326-2.85,3.7-4.027,5.865-3.015Z" transform="translate(-382.599 -59.912)" fill="#ffbe9d"></path><path id="Path_2239" data-name="Path 2239" d="M404.779,254.781a13.547,13.547,0,0,0,6.505,2.995,17.459,17.459,0,0,0,2.065.413l-.434-.392a3.614,3.614,0,0,0,2.85,2.623c.971.145,1.508-.207,1.466-.289a6.964,6.964,0,0,1-1.322-.351,3.1,3.1,0,0,1-2.065-2.189v-.33h-.351l-2.065-.434C407.794,255.834,404.924,254.491,404.779,254.781Z" transform="translate(-390.546 -55.468)" fill="#eb996e"></path><path id="Path_2240" data-name="Path 2240" d="M406.744,258.74a22.262,22.262,0,0,0,6.485,2.272c.95.268,1.8.372,2.065.867a5.924,5.924,0,0,0,.764.95,2.725,2.725,0,0,0,.991.62c1.384.454,2.189-.145,2.065-.227a6.132,6.132,0,0,1-1.8-.475c-.537-.268-.805-.64-1.28-1.466a2.5,2.5,0,0,0-1.26-.929c-.475-.165-.909-.248-1.363-.392a22.717,22.717,0,0,0-6.671-1.218Z" transform="translate(-396.496 -51.208)" fill="#eb996e"></path><path id="Path_2241" data-name="Path 2241" d="M406.868,263.927c-.145.248,1.59,1.384,4.027,2.065a7.537,7.537,0,0,0,4.523.392c0-.31-1.9-.743-4.13-1.425S407.075,263.638,406.868,263.927Z" transform="translate(-393.027 -45.759)" fill="#eb996e"></path><ellipse id="Ellipse_43" data-name="Ellipse 43" cx="2" cy="2" rx="2" ry="2" transform="translate(58.998 42.909)" fill="#ce661e"></ellipse></g></g></svg> 