<?xml version="1.0" standalone="no"?>
<!DOCTYPE svg PUBLIC "-//W3C//DTD SVG 20010904//EN"
 "http://www.w3.org/TR/2001/REC-SVG-20010904/DTD/svg10.dtd">
<svg version="1.0" xmlns="http://www.w3.org/2000/svg"
 width="741.000000pt" height="515.000000pt" viewBox="0 0 741.000000 515.000000"
 preserveAspectRatio="xMidYMid meet">

<g transform="translate(0.000000,515.000000) scale(0.100000,-0.100000)"
fill="#000000" stroke="none">
<path d="M3075 5144 c-257 -39 -381 -121 -429 -284 -32 -106 -18 -235 54 -510
79 -301 93 -383 94 -530 0 -121 -3 -143 -27 -213 -56 -161 -155 -276 -300
-347 -147 -72 -205 -80 -677 -90 -489 -11 -588 -21 -780 -82 -52 -16 -135 -50
-185 -75 -283 -141 -518 -408 -667 -759 -214 -505 -209 -1043 14 -1422 50 -86
208 -238 308 -296 237 -139 544 -219 1025 -265 373 -36 695 -44 1677 -45 l936
-1 7 -49 c17 -131 113 -202 150 -113 7 18 16 62 20 100 l7 67 113 0 113 0 10
82 c40 316 40 331 -9 616 -16 95 -29 186 -29 202 l0 29 103 3 c56 2 105 1 109
-2 4 -3 15 -34 24 -70 29 -107 23 -255 -16 -450 -27 -137 -32 -185 -31 -283
l2 -118 -31 -30 c-27 -27 -36 -31 -68 -25 -20 3 -42 13 -48 21 -25 34 -33 -45
-10 -100 13 -29 20 -35 46 -35 41 0 83 44 105 110 13 39 21 50 38 50 105 1
688 21 743 26 l72 6 3 -90 c3 -72 8 -96 25 -118 28 -38 47 -48 78 -40 35 9 46
39 57 155 5 52 11 96 12 97 1 1 99 12 217 24 230 23 260 27 260 41 0 5 12 4
26 -1 14 -6 43 -10 65 -10 l39 0 0 -70 c0 -62 -3 -74 -25 -95 -16 -17 -35 -25
-59 -25 -47 0 -58 23 -52 103 5 56 4 57 -4 17 -15 -77 -12 -193 6 -218 37 -53
112 -8 140 83 16 55 18 135 5 182 -11 39 -21 34 174 83 473 119 724 302 834
606 96 266 75 563 -67 949 -104 282 -357 719 -600 1034 l-64 84 22 94 c39 160
11 313 -74 397 -22 23 -88 69 -146 102 -122 71 -184 132 -200 196 -16 64 -37
99 -82 136 -27 21 -51 32 -73 32 -59 0 -137 -32 -181 -75 l-42 -40 -99 83
c-693 589 -1583 1039 -2263 1147 -104 16 -338 27 -395 19z m3093 -1246 c6 -13
13 -33 16 -45 3 -13 8 -31 11 -41 4 -16 1 -18 -25 -14 -17 2 -30 0 -30 -6 0
-6 12 -12 28 -14 l27 -3 -1 -82 c-1 -64 -6 -89 -23 -118 -27 -46 -26 -49 2
-31 16 11 32 13 52 8 l30 -8 -57 -36 c-30 -20 -59 -41 -62 -47 -10 -15 -47
-14 -120 4 -93 24 -93 24 -67 41 21 15 27 15 78 -5 64 -25 73 -26 73 -7 0 9
-16 15 -49 18 -36 4 -63 15 -100 41 -28 21 -57 37 -64 37 -22 0 -49 37 -45 62
2 19 9 23 35 22 25 -2 33 3 37 22 7 28 58 67 109 84 48 15 103 69 112 109 8
37 18 39 33 9z m225 -541 c8 -18 27 -129 42 -247 15 -118 40 -272 56 -342 16
-69 29 -143 29 -164 0 -45 -23 -74 -61 -74 -23 0 -33 10 -65 63 -21 34 -59 91
-85 125 -47 63 -74 121 -145 302 -22 58 -46 103 -62 116 -20 17 -24 26 -18 50
4 16 6 49 6 72 -1 49 15 50 25 2 10 -47 20 -42 18 8 l-3 47 19 -41 c21 -45 36
-60 46 -44 16 26 27 6 23 -45 -3 -53 -1 -59 47 -125 28 -38 52 -69 55 -69 3 0
17 16 33 36 35 47 34 82 -3 162 -27 56 -29 66 -16 80 11 12 12 26 6 61 -5 25
-9 55 -10 68 0 21 1 22 24 7 13 -9 31 -31 39 -48z m-629 -42 c-1 -77 -5 -100
-32 -164 -38 -88 -40 -117 -9 -162 22 -33 22 -37 14 -214 -7 -166 -11 -188
-42 -281 -32 -97 -149 -358 -205 -459 -15 -27 -30 -72 -34 -98 -3 -27 -15 -61
-26 -77 -11 -15 -20 -33 -20 -40 0 -6 -6 -10 -12 -7 -7 2 -13 14 -13 26 -1 40
-41 45 -104 11 -12 -6 -30 -10 -39 -8 -12 2 -5 10 22 26 49 29 42 38 -12 16
-65 -26 -73 -9 -9 21 71 33 75 50 6 24 -61 -23 -56 -8 9 26 l47 25 -40 -5 -40
-5 30 15 c17 8 38 14 47 15 33 0 109 44 113 65 28 127 93 371 120 450 43 126
62 279 73 570 6 160 12 228 22 250 19 38 77 77 110 73 25 -3 25 -4 24 -93z
m-1428 -42 c9 -21 16 -51 15 -67 -2 -35 14 -48 43 -35 43 20 176 -61 176 -106
0 -8 12 -12 33 -11 29 1 32 -2 35 -31 3 -33 -25 -63 -59 -63 -10 0 -19 -4 -21
-9 -1 -5 -19 -20 -39 -33 l-37 -25 34 -12 c19 -7 34 -15 34 -19 0 -4 -41 -18
-91 -31 l-90 -23 -81 53 -81 54 31 9 c26 7 36 5 53 -10 20 -18 20 -17 -2 26
-19 35 -25 65 -27 131 l-4 87 39 10 38 11 -37 -2 c-21 -2 -38 0 -38 3 0 33 42
130 56 130 2 0 11 -17 20 -37z m-2611 -484 c6 -36 7 -36 63 -43 31 -4 85 -11
118 -17 54 -9 63 -14 67 -35 5 -29 8 -29 -109 -2 -73 16 -99 19 -117 10 -34
-16 -75 -23 -81 -13 -3 5 -31 12 -62 16 -85 10 -89 14 -47 42 39 26 38 26 106
-2 14 -6 17 -2 17 30 0 46 18 84 31 64 4 -7 11 -30 14 -50z m3035 -10 c58 -13
86 -32 106 -71 13 -26 18 -81 24 -292 10 -319 26 -443 79 -601 22 -66 59 -200
83 -299 l43 -178 47 -24 c26 -13 58 -24 70 -24 13 -1 34 -8 48 -16 25 -15 25
-15 -13 -10 -48 6 -40 -6 18 -28 25 -10 45 -22 45 -27 0 -13 -12 -11 -55 7
-60 25 -53 7 9 -20 55 -24 73 -46 39 -46 -10 1 -29 7 -43 15 -45 26 -56 15
-12 -12 54 -32 42 -54 -14 -25 -80 40 -109 36 -109 -13 0 -37 -27 -20 -56 34
-16 30 -29 66 -29 81 0 15 -45 119 -99 231 -55 112 -118 258 -141 324 -41 118
-42 123 -51 309 -4 104 -10 191 -13 193 -2 3 -13 -8 -23 -23 -14 -22 -18 -48
-18 -115 l0 -87 -35 -11 c-61 -18 -162 -31 -242 -31 -69 0 -199 19 -239 35
-12 4 -20 -3 -29 -25 -31 -74 -125 -199 -161 -213 -10 -4 -9 -6 4 -6 21 -1 21
-14 2 -76 -8 -27 -17 -86 -21 -131 l-7 -82 -301 -7 c-183 -4 -309 -12 -321
-18 -11 -6 -78 -27 -150 -47 l-130 -37 0 -169 c0 -132 4 -182 18 -226 14 -46
15 -61 6 -77 -10 -15 -9 -25 9 -52 l22 -34 0 53 c0 52 0 52 33 54 l32 1 -32 4
-33 4 0 95 0 94 83 2 82 2 -82 3 -83 4 0 52 c0 29 -3 82 -6 118 l-7 66 249 6
c137 4 308 10 379 14 l130 6 22 -49 c49 -110 85 -275 62 -283 -8 -2 -7 -6 1
-11 8 -5 9 -24 3 -66 -8 -55 -10 -59 -38 -65 l-30 -7 28 -1 c30 -1 32 -7 17
-45 -7 -19 -17 -26 -37 -27 l-28 -1 27 -7 27 -6 -26 -59 -27 -58 -195 6 c-580
18 -561 17 -561 35 -1 10 -6 6 -16 -12 -15 -28 -34 -28 -34 0 0 74 -284 465
-326 449 -7 -3 -14 3 -16 12 -3 13 -8 10 -22 -13 -17 -29 -17 -12 -1 27 4 10
3 18 -3 18 -6 0 -16 -16 -22 -35 -13 -40 -37 -62 -26 -24 18 66 17 74 -4 36
-28 -51 -38 -40 -15 18 18 48 10 75 -21 75 -8 0 -14 6 -14 13 0 7 -34 39 -76
72 l-76 60 6 210 c4 116 9 252 13 303 4 65 3 92 -5 92 -8 0 -12 -51 -14 -162
-2 -132 -6 -162 -17 -160 -7 1 -49 -29 -92 -68 l-78 -71 -39 25 c-63 40 -115
51 -163 37 -23 -7 -42 -11 -43 -9 -3 3 -186 417 -193 436 -3 7 3 12 15 12 23
0 40 19 26 29 -12 8 -11 34 1 43 18 14 45 8 45 -9 0 -15 208 -383 230 -406 7
-8 120 122 120 138 0 26 156 207 221 256 40 31 59 38 137 48 85 12 91 14 130
54 22 23 49 58 61 77 26 43 26 38 2 -50 -22 -79 -26 -73 62 -86 29 -4 67 -19
95 -38 51 -34 168 -181 178 -224 4 -15 32 -63 61 -107 l54 -80 -7 105 c-3 58
-10 127 -14 153 -4 26 -4 49 -1 51 3 2 132 7 286 10 154 4 316 9 361 12 l81 6
11 50 c22 95 33 88 -146 88 -88 0 -200 3 -251 7 -88 6 -92 7 -86 27 12 43 17
274 7 351 -6 44 -9 81 -8 82 1 2 130 6 287 9 l284 7 35 30 c41 36 46 28 30
-60 -6 -36 -10 -67 -8 -68 10 -9 118 -75 123 -75 3 0 5 9 5 20 0 22 10 26 27
9 17 -17 31 -3 44 41 17 55 33 51 27 -7 l-6 -48 19 43 c10 23 21 42 25 42 4 0
4 -20 2 -45 -3 -25 -2 -48 3 -51 5 -3 9 -14 9 -25 0 -47 153 1 164 51 3 14 12
66 21 116 l16 90 62 -3 c34 -2 82 -8 107 -14z m-2024 -110 c28 -6 60 -16 70
-23 17 -13 17 -16 2 -47 -14 -29 -15 -36 -2 -60 10 -21 11 -35 4 -55 -10 -25
-9 -26 12 -19 48 15 63 11 66 -16 4 -32 -23 -61 -52 -57 -12 1 -32 -8 -46 -23
-14 -14 -46 -34 -71 -43 -39 -15 -53 -16 -89 -6 -57 15 -85 46 -99 108 -11 52
-6 112 10 112 5 0 9 5 9 11 0 5 -4 8 -10 4 -5 -3 -5 7 1 25 7 20 18 30 31 30
17 0 18 3 8 15 -10 12 -9 20 4 40 18 27 27 27 152 4z m-929 -453 c4 -3 -12 -6
-35 -6 -29 0 -42 4 -42 14 0 11 8 12 36 6 19 -5 38 -11 41 -14z m12 -25 c10
-7 5 -11 -17 -16 -32 -7 -52 -1 -52 16 0 11 50 12 69 0z m4 -38 c-7 -2 -21 -2
-30 0 -10 3 -4 5 12 5 17 0 24 -2 18 -5z m2621 -185 c15 -24 -13 -53 -43 -43
-21 6 -29 43 -14 59 12 12 45 2 57 -16z m-124 -828 c0 -8 2 -85 5 -171 3 -90
0 -189 -6 -235 -6 -43 -13 -158 -14 -254 -2 -96 -4 -183 -4 -192 -3 -52 -98
-79 -135 -39 -16 18 -17 30 -7 140 18 198 15 259 -28 466 -21 105 -42 215 -46
245 l-7 55 121 0 c101 0 121 -2 121 -15z m-3411 -222 c-19 -36 -5 -138 30
-215 41 -90 54 -150 34 -157 -8 -3 -21 -6 -28 -6 -16 0 -35 51 -35 95 0 18 -9
53 -20 79 -26 58 -29 166 -6 201 21 31 41 34 25 3z m275 -195 c3 -21 6 -50 6
-65 0 -27 -1 -28 -60 -28 -56 0 -60 2 -60 23 0 12 3 32 6 44 5 18 10 21 24 13
20 -11 30 -4 30 21 0 15 11 22 41 28 4 0 9 -16 13 -36z m854 10 c38 -5 43 -8
38 -27 -4 -12 -9 -34 -13 -49 -4 -19 -10 -26 -20 -23 -8 4 -20 6 -26 6 -7 0
-18 4 -26 9 -12 8 -12 12 -2 25 14 17 7 36 -15 36 -8 0 -14 9 -14 21 0 16 4
19 17 15 9 -4 37 -10 61 -13z m-237 -213 c33 -8 73 -10 113 -5 33 4 91 9 129
11 64 3 67 2 67 -20 0 -40 -23 -50 -83 -38 -29 6 -80 8 -112 5 -33 -3 -79 0
-102 6 -46 13 -106 57 -97 72 3 5 12 3 19 -5 8 -8 37 -19 66 -26z m3881 -112
c25 -15 36 -28 32 -38 -3 -8 -10 -60 -16 -115 -6 -55 -15 -106 -20 -112 -16
-20 -62 -15 -92 8 -33 26 -34 74 -6 180 11 41 20 94 20 119 l0 45 23 -32 c12
-18 39 -42 59 -55z"/>
<path d="M6000 3760 c-8 -5 -12 -11 -10 -14 8 -7 60 6 60 15 0 12 -31 11 -50
-1z"/>
<path d="M6122 3698 c2 -37 11 -48 22 -29 3 5 -1 22 -9 37 l-15 29 2 -37z"/>
<path d="M6040 3711 c-20 -6 -22 -8 -8 -13 9 -4 24 0 35 7 19 15 12 17 -27 6z"/>
<path d="M5860 3662 c0 -7 5 -12 11 -12 6 0 9 -7 5 -15 -3 -9 0 -15 9 -15 21
0 19 14 -5 35 -11 10 -20 13 -20 7z"/>
<path d="M6049 3609 c24 -20 67 -26 56 -9 -3 6 1 10 9 10 8 0 17 3 19 8 3 4
-20 8 -51 8 l-56 2 23 -19z"/>
<path d="M4430 3141 c8 -5 26 -12 40 -16 22 -7 23 -6 11 9 -7 9 -25 16 -40 16
-19 -1 -22 -3 -11 -9z"/>
<path d="M4327 3083 c-3 -16 -2 -31 2 -35 4 -5 8 8 9 27 3 42 -3 46 -11 8z"/>
<path d="M4390 3096 c0 -2 7 -7 16 -10 8 -3 12 -2 9 4 -6 10 -25 14 -25 6z"/>
<path d="M4592 3028 c-16 -16 -15 -25 4 -32 14 -5 15 -4 5 8 -10 11 -8 17 6
25 10 6 13 11 8 11 -6 0 -16 -5 -23 -12z"/>
<path d="M4390 3000 l-55 -6 50 -5 c28 -3 54 -2 59 2 15 13 5 15 -54 9z"/>
<path d="M4373 2973 c9 -2 23 -2 30 0 6 3 -1 5 -18 5 -16 0 -22 -2 -12 -5z"/>
<path d="M4370 2858 c0 -16 3 -16 38 -1 20 8 38 16 39 17 1 1 -16 2 -37 1 -31
0 -40 -4 -40 -17z"/>
<path d="M3643 2613 c9 -2 25 -2 35 0 9 3 1 5 -18 5 -19 0 -27 -2 -17 -5z"/>
<path d="M3718 2603 c6 -2 18 -2 25 0 6 3 1 5 -13 5 -14 0 -19 -2 -12 -5z"/>
<path d="M3778 2593 c7 -3 16 -2 19 1 4 3 -2 6 -13 5 -11 0 -14 -3 -6 -6z"/>
<path d="M3968 2593 c7 -3 16 -2 19 1 4 3 -2 6 -13 5 -11 0 -14 -3 -6 -6z"/>
<path d="M3848 2583 c17 -2 47 -2 65 0 17 2 3 4 -33 4 -36 0 -50 -2 -32 -4z"/>
<path d="M3978 2573 c7 -3 16 -2 19 1 4 3 -2 6 -13 5 -11 0 -14 -3 -6 -6z"/>
<path d="M3593 2563 c9 -2 25 -2 35 0 9 3 1 5 -18 5 -19 0 -27 -2 -17 -5z"/>
<path d="M3928 2563 c6 -2 18 -2 25 0 6 3 1 5 -13 5 -14 0 -19 -2 -12 -5z"/>
<path d="M3683 2553 c9 -2 23 -2 30 0 6 3 -1 5 -18 5 -16 0 -22 -2 -12 -5z"/>
<path d="M3863 2553 c9 -2 23 -2 30 0 6 3 -1 5 -18 5 -16 0 -22 -2 -12 -5z"/>
<path d="M3898 2503 c17 -2 47 -2 65 0 17 2 3 4 -33 4 -36 0 -50 -2 -32 -4z"/>
<path d="M3773 2493 c9 -2 25 -2 35 0 9 3 1 5 -18 5 -19 0 -27 -2 -17 -5z"/>
<path d="M3583 2383 c15 -2 37 -2 50 0 12 2 0 4 -28 4 -27 0 -38 -2 -22 -4z"/>
<path d="M3698 2373 c7 -3 16 -2 19 1 4 3 -2 6 -13 5 -11 0 -14 -3 -6 -6z"/>
<path d="M3943 2373 c9 -2 23 -2 30 0 6 3 -1 5 -18 5 -16 0 -22 -2 -12 -5z"/>
<path d="M3788 2363 c23 -2 61 -2 85 0 23 2 4 4 -43 4 -47 0 -66 -2 -42 -4z"/>
<path d="M3903 2043 c9 -2 23 -2 30 0 6 3 -1 5 -18 5 -16 0 -22 -2 -12 -5z"/>
<path d="M3268 2033 c12 -2 32 -2 45 0 12 2 2 4 -23 4 -25 0 -35 -2 -22 -4z"/>
<path d="M3783 2033 c15 -2 37 -2 50 0 12 2 0 4 -28 4 -27 0 -38 -2 -22 -4z"/>
<path d="M3463 2023 c42 -2 112 -2 155 0 42 1 7 3 -78 3 -85 0 -120 -2 -77 -3z"/>
<path d="M3878 1993 c7 -3 16 -2 19 1 4 3 -2 6 -13 5 -11 0 -14 -3 -6 -6z"/>
<path d="M3828 1983 c7 -3 16 -2 19 1 4 3 -2 6 -13 5 -11 0 -14 -3 -6 -6z"/>
<path d="M3778 1973 c7 -3 16 -2 19 1 4 3 -2 6 -13 5 -11 0 -14 -3 -6 -6z"/>
<path d="M3738 1963 c7 -3 16 -2 19 1 4 3 -2 6 -13 5 -11 0 -14 -3 -6 -6z"/>
<path d="M3688 1953 c7 -3 16 -2 19 1 4 3 -2 6 -13 5 -11 0 -14 -3 -6 -6z"/>
<path d="M3638 1943 c7 -3 16 -2 19 1 4 3 -2 6 -13 5 -11 0 -14 -3 -6 -6z"/>
<path d="M3578 1933 c6 -2 18 -2 25 0 6 3 1 5 -13 5 -14 0 -19 -2 -12 -5z"/>
<path d="M3313 1923 c9 -2 23 -2 30 0 6 3 -1 5 -18 5 -16 0 -22 -2 -12 -5z"/>
<path d="M3503 1923 c9 -2 25 -2 35 0 9 3 1 5 -18 5 -19 0 -27 -2 -17 -5z"/>
<path d="M3433 1853 c26 -2 67 -2 90 0 23 2 2 3 -48 3 -49 0 -68 -1 -42 -3z"/>
<path d="M3613 1853 c20 -2 54 -2 75 0 20 2 3 4 -38 4 -41 0 -58 -2 -37 -4z"/>
<path d="M3298 1843 c6 -2 18 -2 25 0 6 3 1 5 -13 5 -14 0 -19 -2 -12 -5z"/>
<path d="M3783 1843 c9 -2 25 -2 35 0 9 3 1 5 -18 5 -19 0 -27 -2 -17 -5z"/>
<path d="M3868 1833 c6 -2 18 -2 25 0 6 3 1 5 -13 5 -14 0 -19 -2 -12 -5z"/>
<path d="M3928 1823 c6 -2 18 -2 25 0 6 3 1 5 -13 5 -14 0 -19 -2 -12 -5z"/>
<path d="M3050 1632 c0 -34 4 -62 9 -62 22 0 71 23 71 34 0 7 -18 30 -40 51
l-40 39 0 -62z"/>
<path d="M3828 1683 c17 -2 47 -2 65 0 17 2 3 4 -33 4 -36 0 -50 -2 -32 -4z"/>
<path d="M3688 1673 c12 -2 32 -2 45 0 12 2 2 4 -23 4 -25 0 -35 -2 -22 -4z"/>
<path d="M3583 1663 c9 -2 25 -2 35 0 9 3 1 5 -18 5 -19 0 -27 -2 -17 -5z"/>
<path d="M3493 1653 c9 -2 25 -2 35 0 9 3 1 5 -18 5 -19 0 -27 -2 -17 -5z"/>
<path d="M3418 1643 c6 -2 18 -2 25 0 6 3 1 5 -13 5 -14 0 -19 -2 -12 -5z"/>
<path d="M3358 1633 c6 -2 18 -2 25 0 6 3 1 5 -13 5 -14 0 -19 -2 -12 -5z"/>
<path d="M3778 1353 c12 -2 30 -2 40 0 9 3 -1 5 -23 4 -22 0 -30 -2 -17 -4z"/>
<path d="M3693 1343 c9 -2 23 -2 30 0 6 3 -1 5 -18 5 -16 0 -22 -2 -12 -5z"/>
<path d="M3613 1333 c9 -2 23 -2 30 0 6 3 -1 5 -18 5 -16 0 -22 -2 -12 -5z"/>
<path d="M3183 1323 c26 -2 67 -2 90 0 23 2 2 3 -48 3 -49 0 -68 -1 -42 -3z"/>
<path d="M3493 1323 c15 -2 37 -2 50 0 12 2 0 4 -28 4 -27 0 -38 -2 -22 -4z"/>
<path d="M3878 1273 c6 -2 18 -2 25 0 6 3 1 5 -13 5 -14 0 -19 -2 -12 -5z"/>
<path d="M3803 1263 c9 -2 23 -2 30 0 6 3 -1 5 -18 5 -16 0 -22 -2 -12 -5z"/>
<path d="M3713 1253 c9 -2 25 -2 35 0 9 3 1 5 -18 5 -19 0 -27 -2 -17 -5z"/>
<path d="M3598 1243 c12 -2 32 -2 45 0 12 2 2 4 -23 4 -25 0 -35 -2 -22 -4z"/>
<path d="M3178 1233 c7 -3 16 -2 19 1 4 3 -2 6 -13 5 -11 0 -14 -3 -6 -6z"/>
<path d="M3408 1233 c23 -2 61 -2 85 0 23 2 4 4 -43 4 -47 0 -66 -2 -42 -4z"/>
<path d="M3358 1153 c12 -2 30 -2 40 0 9 3 -1 5 -23 4 -22 0 -30 -2 -17 -4z"/>
<path d="M3468 1143 c12 -2 30 -2 40 0 9 3 -1 5 -23 4 -22 0 -30 -2 -17 -4z"/>
<path d="M3563 1133 c9 -2 25 -2 35 0 9 3 1 5 -18 5 -19 0 -27 -2 -17 -5z"/>
<path d="M3663 1123 c9 -2 25 -2 35 0 9 3 1 5 -18 5 -19 0 -27 -2 -17 -5z"/>
<path d="M3758 1113 c12 -2 30 -2 40 0 9 3 -1 5 -23 4 -22 0 -30 -2 -17 -4z"/>
<path d="M3858 1103 c12 -2 30 -2 40 0 9 3 -1 5 -23 4 -22 0 -30 -2 -17 -4z"/>
<path d="M3708 973 c7 -3 16 -2 19 1 4 3 -2 6 -13 5 -11 0 -14 -3 -6 -6z"/>
<path d="M3528 963 c18 -2 45 -2 60 0 15 2 0 4 -33 4 -33 0 -45 -2 -27 -4z"/>
<path d="M3833 963 c9 -2 23 -2 30 0 6 3 -1 5 -18 5 -16 0 -22 -2 -12 -5z"/>
<path d="M3263 953 c37 -2 96 -2 130 0 34 2 4 3 -68 3 -71 0 -99 -1 -62 -3z"/>
<path d="M3743 863 c15 -2 39 -2 55 0 15 2 2 4 -28 4 -30 0 -43 -2 -27 -4z"/>
<path d="M3588 853 c18 -2 45 -2 60 0 15 2 0 4 -33 4 -33 0 -45 -2 -27 -4z"/>
<path d="M3433 843 c15 -2 39 -2 55 0 15 2 2 4 -28 4 -30 0 -43 -2 -27 -4z"/>
<path d="M3278 833 c18 -2 45 -2 60 0 15 2 0 4 -33 4 -33 0 -45 -2 -27 -4z"/>
<path d="M3138 823 c12 -2 32 -2 45 0 12 2 2 4 -23 4 -25 0 -35 -2 -22 -4z"/>
<path d="M2556 2556 c3 -9 11 -16 16 -16 13 0 5 23 -10 28 -7 2 -10 -2 -6 -12z"/>
<path d="M2680 2561 c0 -13 49 -43 62 -39 15 5 -27 48 -47 48 -8 0 -15 -4 -15
-9z"/>
<path d="M2600 2545 c0 -8 -9 -19 -21 -25 -16 -9 -18 -14 -8 -26 12 -15 30
-19 27 -6 -1 4 4 20 10 35 15 34 15 37 2 37 -5 0 -10 -7 -10 -15z"/>
<path d="M2647 2524 c-4 -4 -7 -12 -7 -18 0 -6 4 -6 12 2 9 9 15 7 25 -6 13
-16 14 -16 11 3 -3 20 -28 32 -41 19z"/>
<path d="M2847 2442 c-16 -18 -14 -32 6 -32 5 0 7 6 4 13 -2 6 3 17 12 24 9 7
11 13 5 13 -6 0 -18 -8 -27 -18z"/>
<path d="M2570 2426 c0 -36 102 -45 130 -11 11 13 6 15 -36 15 -27 0 -59 3
-71 6 -17 5 -23 2 -23 -10z"/>
</g>
</svg>
