<?xml version="1.0" standalone="no"?>
<!DOCTYPE svg PUBLIC "-//W3C//DTD SVG 20010904//EN"
 "http://www.w3.org/TR/2001/REC-SVG-20010904/DTD/svg10.dtd">
<svg version="1.0" xmlns="http://www.w3.org/2000/svg"
 width="903.000000pt" height="489.000000pt" viewBox="0 0 903.000000 489.000000"
 preserveAspectRatio="xMidYMid meet">

<g transform="translate(0.000000,489.000000) scale(0.100000,-0.100000)"
fill="#000000" stroke="none">
<path d="M5534 4565 c-19 -30 -14 -48 20 -71 24 -15 28 -15 51 0 27 18 34 63
13 84 -21 21 -66 14 -84 -13z"/>
<path d="M2715 4524 c-24 -25 -15 -67 17 -78 34 -12 58 6 58 45 0 43 -45 63
-75 33z"/>
<path d="M5660 4520 c-35 -35 -26 -67 28 -94 43 -22 62 -8 62 45 0 28 -6 42
-22 53 -30 21 -44 20 -68 -4z"/>
<path d="M4608 4423 c7 -3 16 -2 19 1 4 3 -2 6 -13 5 -11 0 -14 -3 -6 -6z"/>
<path d="M4635 4128 c-81 -27 -120 -53 -142 -98 -13 -24 -23 -57 -23 -72 0
-18 -5 -28 -15 -28 -14 0 -53 18 -65 30 -3 3 -39 13 -80 24 -41 10 -106 27
-145 37 -239 63 -459 111 -463 101 -2 -7 -10 -12 -17 -12 -24 0 -37 -40 -43
-125 -4 -74 -3 -84 16 -103 20 -20 34 -22 199 -24 l178 -3 6 -55 c6 -57 18
-122 45 -248 33 -151 129 -289 239 -342 63 -31 174 -39 227 -17 l35 15 7 -72
c16 -188 18 -432 3 -535 -9 -57 -13 -109 -11 -115 2 -6 -5 -38 -16 -71 -26
-75 -102 -456 -127 -630 -26 -188 -23 -473 5 -614 12 -57 24 -107 28 -110 4
-3 4 5 1 19 -55 231 -57 482 -6 805 28 173 84 446 109 527 l20 65 49 -23 c98
-47 238 -47 345 0 l58 26 -6 -73 c-36 -442 7 -873 131 -1320 20 -70 34 -129
32 -132 -11 -11 -173 -36 -215 -33 l-49 3 -48 120 c-76 189 -117 344 -117 440
1 164 45 397 122 634 27 85 52 161 55 170 4 14 3 14 -6 1 -17 -23 -96 -271
-125 -390 -80 -335 -79 -706 4 -944 26 -76 25 -98 -5 -126 -31 -29 -140 -39
-200 -17 -50 18 -68 43 -111 153 -19 49 -32 76 -29 59 4 -16 23 -69 43 -117
36 -86 36 -86 88 -104 44 -15 53 -22 58 -47 3 -16 4 -33 1 -37 -5 -8 -133 -28
-215 -34 -31 -2 -24 -3 25 -5 39 -1 104 -8 145 -15 l75 -12 -104 -33 c-136
-42 -214 -78 -206 -91 8 -13 65 -9 280 21 77 10 141 19 143 19 2 0 2 39 0 87
-3 86 -3 88 21 91 31 5 111 -7 111 -16 0 -4 -22 -15 -50 -25 -27 -10 -50 -22
-50 -27 0 -14 89 -13 182 2 67 10 88 9 157 -7 44 -10 78 -21 76 -25 -3 -4 -23
-10 -46 -14 -23 -4 -39 -9 -36 -12 3 -3 40 2 83 11 44 10 138 20 209 25 l130
7 -100 1 c-55 0 -121 -3 -146 -7 -34 -5 -66 -2 -125 14 -75 21 -77 22 -46 29
37 9 36 0 6 149 -18 87 -18 87 6 87 28 0 26 18 -14 157 -92 318 -136 645 -137
1005 0 263 8 388 27 395 8 3 14 20 14 38 0 27 5 35 30 45 70 29 175 180 204
295 9 32 15 86 15 120 -2 60 -2 60 -9 -20 -9 -90 -34 -164 -86 -251 -47 -79
-68 -100 -131 -130 -59 -29 -105 -28 -152 3 -14 10 -29 18 -33 18 -17 0 -31
27 -36 72 -8 72 -7 242 2 379 8 111 7 125 -13 187 -30 90 -89 176 -151 219
-28 20 -47 39 -41 42 10 6 82 4 75 -3 -2 -2 15 -24 38 -50 39 -44 98 -152 98
-178 0 -28 18 -11 24 23 9 43 65 108 119 136 55 28 138 35 156 14 12 -14 11
-19 -4 -36 -21 -23 -35 -26 -35 -6 0 31 -31 25 -57 -12 -15 -20 -43 -45 -62
-55 -41 -19 -126 -92 -98 -83 12 4 33 -6 60 -28 51 -40 99 -66 126 -66 18 0
19 -5 14 -53 -7 -65 8 -97 42 -97 33 0 45 27 45 99 0 49 4 62 19 71 38 20 43
13 37 -47 -7 -64 2 -87 30 -81 41 8 51 104 29 273 -3 22 -8 59 -11 83 -4 32
-10 42 -23 42 -10 0 -24 -7 -31 -15 -19 -22 -54 -18 -65 8 -9 19 -17 22 -70
22 -63 0 -126 -25 -172 -67 l-22 -20 -11 43 c-6 24 -12 48 -14 54 -1 5 14 17
34 26 41 18 85 69 95 110 9 35 -10 102 -39 136 -13 16 -26 48 -29 74 -8 63
-42 149 -80 206 -58 87 -170 124 -272 91z m-723 -59 l167 -41 -15 -30 c-8 -16
-18 -51 -21 -79 l-6 -49 -178 0 -178 0 -7 36 c-15 82 21 220 55 209 9 -2 91
-23 183 -46z m-237 -10 c-8 -23 -16 -69 -17 -103 -2 -61 -2 -61 -6 -11 -4 54
14 155 28 155 5 0 3 -19 -5 -41z m448 -35 c3 -4 0 -16 -8 -28 -25 -34 -17 -40
11 -7 27 33 51 33 34 1 -5 -10 -10 -25 -10 -32 1 -7 8 -1 16 15 8 15 22 27 31
27 13 0 14 -3 5 -12 -7 -7 -12 -18 -12 -26 0 -9 7 -6 18 9 13 15 25 20 37 15
17 -6 17 -8 -3 -29 -25 -26 -42 -69 -42 -103 0 -27 3 -29 30 -12 10 7 22 9 25
6 11 -11 -32 -96 -55 -108 -21 -11 -22 -17 -17 -81 11 -127 87 -247 170 -270
43 -11 101 -5 156 18 42 18 124 73 118 79 -2 3 -28 -11 -57 -31 -167 -112
-302 -66 -360 123 -29 93 -27 132 10 167 17 16 36 46 42 67 10 35 14 38 46 38
60 0 29 10 -37 12 -48 1 -61 5 -56 16 3 7 5 19 5 25 0 7 14 26 29 44 28 30 31
31 73 21 23 -6 49 -15 56 -21 19 -15 14 -65 -8 -87 -24 -24 -13 -26 26 -5 16
8 39 15 52 15 19 0 21 -3 12 -19 -16 -32 -12 -51 15 -61 19 -7 25 -17 25 -42
1 -18 7 -46 14 -63 9 -23 10 -37 0 -64 -6 -18 -9 -42 -6 -53 7 -27 59 -68 90
-70 71 -4 82 -6 96 -17 27 -23 40 -79 27 -122 -13 -44 -93 -117 -162 -148
-107 -49 -241 -12 -338 95 -81 88 -108 160 -155 405 -26 140 -18 257 22 302
16 18 25 21 35 11z m501 -35 c10 -22 33 -56 52 -74 29 -30 40 -34 77 -32 42 2
42 2 42 -33 0 -32 -3 -35 -34 -40 -54 -8 -76 -46 -76 -135 0 -60 4 -79 23
-104 27 -37 27 -41 3 -41 -21 0 -48 61 -36 80 4 6 -8 10 -30 10 -55 0 -99 23
-118 61 -16 34 -16 34 8 42 25 9 35 27 15 27 -5 0 -10 -4 -10 -10 0 -5 -7 -10
-15 -10 -9 0 -15 9 -15 23 0 27 -10 41 -33 50 -21 8 -19 22 20 107 24 55 77
120 98 120 6 0 19 -18 29 -41z m-204 -84 c0 -13 -4 -27 -10 -30 -6 -4 -10 8
-10 30 0 22 4 34 10 30 6 -3 10 -17 10 -30z m60 -6 c-13 -24 -43 -22 -48 4 -3
13 3 17 28 17 28 0 30 -2 20 -21z m191 -382 c-10 -9 -11 -8 -5 6 3 10 9 15 12
12 3 -3 0 -11 -7 -18z m645 -169 c5 -7 2 -9 -8 -5 -9 3 -21 0 -27 -6 -7 -7
-11 -7 -11 -1 0 24 33 33 46 12z m-236 -28 c0 -42 24 -96 49 -112 27 -17 27
-28 -2 -28 -27 0 -101 46 -136 83 l-23 26 48 30 c26 17 52 31 56 31 4 0 8 -14
8 -30z m235 -9 c-4 -14 0 -21 12 -24 14 -4 13 -5 -4 -6 -24 -1 -27 6 -17 33 9
23 17 20 9 -3z m-115 5 c0 -2 -9 -6 -20 -9 -11 -3 -20 -1 -20 4 0 5 9 9 20 9
11 0 20 -2 20 -4z m90 -26 c0 -5 -4 -10 -10 -10 -5 0 -10 5 -10 10 0 6 5 10
10 10 6 0 10 -4 10 -10z m-71 -20 c-13 -9 -39 -2 -39 10 0 4 12 5 26 2 17 -3
22 -7 13 -12z m-9 -35 c-7 -9 -15 -13 -17 -11 -7 7 7 26 19 26 6 0 6 -6 -2
-15z m-388 -2015 c38 -120 108 -293 122 -302 6 -4 33 -8 59 -8 55 0 57 -3 60
-85 l2 -58 -39 -13 c-32 -11 -51 -12 -97 -3 -32 6 -72 9 -88 7 -47 -7 -52 26
-11 61 39 32 40 50 5 161 -30 97 -55 251 -54 325 1 28 4 41 6 30 3 -11 19 -63
35 -115z m-129 -531 c5 -20 3 -21 -31 -15 -20 3 -46 6 -57 7 -16 1 46 23 76
28 4 1 9 -9 12 -20z"/>
<path d="M4563 3983 c-7 -2 -13 -9 -13 -15 0 -7 5 -6 14 1 12 10 19 8 35 -8
16 -16 21 -17 21 -6 0 12 -31 37 -42 34 -2 0 -9 -3 -15 -6z"/>
<path d="M4550 3901 c0 -5 10 -7 21 -4 15 4 27 0 35 -12 8 -11 14 -14 14 -9 0
17 -23 34 -47 34 -13 0 -23 -4 -23 -9z"/>
<path d="M5935 3668 c-11 -6 -29 -19 -41 -29 -17 -16 -24 -17 -51 -7 -28 11
-36 9 -75 -17 -30 -20 -56 -29 -88 -29 -49 -1 -70 -10 -70 -29 0 -7 4 -6 10 3
6 9 26 15 57 16 35 0 60 8 91 29 40 26 47 28 75 17 28 -11 35 -10 57 8 47 38
68 45 111 33 21 -5 39 -7 39 -3 0 8 -50 20 -79 20 -9 0 -25 -6 -36 -12z"/>
<path d="M6122 3624 c-31 -25 -36 -26 -77 -14 -51 14 -96 6 -121 -22 -18 -19
-17 -19 19 2 37 22 47 22 120 4 21 -5 37 0 65 20 39 27 86 34 98 15 4 -7 18
-8 38 -4 17 4 54 11 81 16 48 7 48 7 -10 3 -74 -6 -89 -6 -140 1 -33 5 -46 1
-73 -21z"/>
<path d="M2599 3233 c-13 -16 -12 -17 4 -4 16 13 21 21 13 21 -2 0 -10 -8 -17
-17z"/>
<path d="M2768 3233 c7 -3 16 -2 19 1 4 3 -2 6 -13 5 -11 0 -14 -3 -6 -6z"/>
<path d="M2298 3193 c7 -3 16 -2 19 1 4 3 -2 6 -13 5 -11 0 -14 -3 -6 -6z"/>
<path d="M3222 2898 c-20 -20 -15 -76 8 -88 44 -24 85 31 56 75 -18 27 -45 32
-64 13z m58 -17 c5 -11 10 -24 10 -30 0 -12 -28 -41 -40 -41 -12 0 -33 58 -26
75 8 21 43 19 56 -4z"/>
<path d="M5102 2853 c-37 -4 -44 -9 -61 -41 -31 -62 -36 -99 -12 -111 26 -14
109 -14 150 0 26 9 33 19 45 62 27 94 27 92 -29 93 -27 1 -69 -1 -93 -3z m128
-16 c0 -24 -44 -54 -81 -56 -24 -1 -45 6 -63 20 -32 25 -25 36 24 42 80 9 120
7 120 -6z m-122 -61 c12 -4 22 -11 22 -15 0 -3 9 -7 20 -7 11 0 20 3 20 7 0 3
11 11 25 17 29 13 30 12 11 -32 -10 -25 -22 -35 -46 -40 -40 -8 -88 -8 -117 0
-24 7 -24 22 -1 83 8 21 10 22 26 9 9 -9 27 -19 40 -22z"/>
<path d="M5815 2670 c3 -5 8 -10 11 -10 2 0 4 5 4 10 0 6 -5 10 -11 10 -5 0
-7 -4 -4 -10z"/>
<path d="M4900 2664 c0 -6 7 -19 15 -30 8 -10 14 -14 14 -9 0 6 -6 19 -14 29
-8 11 -15 15 -15 10z"/>
<path d="M4172 2338 c-7 -7 -12 -17 -12 -23 0 -6 -6 -19 -13 -29 -11 -15 -17
-16 -40 -5 -33 15 -53 1 -59 -42 -3 -16 -1 -26 3 -22 4 4 9 19 11 33 3 26 18
29 65 15 19 -6 25 -1 39 35 14 35 21 41 40 37 13 -2 21 0 18 4 -8 13 -38 11
-52 -3z"/>
<path d="M4340 2320 c-11 -11 -20 -24 -20 -29 0 -4 -11 -6 -25 -3 -19 3 -32
-3 -52 -27 -15 -17 -37 -31 -50 -31 -28 0 -51 -37 -32 -54 9 -8 10 -8 5 1 -11
21 5 43 33 43 19 0 34 10 50 31 19 25 28 30 50 26 21 -4 29 -1 36 16 6 12 21
27 35 34 18 9 20 13 8 13 -10 0 -27 -9 -38 -20z"/>
<path d="M3957 2223 c-11 -10 -8 -33 4 -33 5 0 8 4 4 9 -3 6 3 14 12 20 15 9
15 10 2 11 -9 0 -19 -3 -22 -7z"/>
<path d="M2656 2148 c-13 -19 -14 -25 -2 -43 26 -39 76 -26 76 19 0 46 -48 62
-74 24z"/>
<path d="M2802 1993 c2 -10 10 -18 18 -18 8 0 16 8 18 18 2 12 -3 17 -18 17
-15 0 -20 -5 -18 -17z"/>
<path d="M5524 1619 c-68 -34 -43 -139 33 -139 43 0 73 30 73 73 0 54 -58 89
-106 66z"/>
<path d="M3487 1162 c-25 -28 -21 -69 8 -88 29 -19 60 -11 81 20 37 57 -44
118 -89 68z"/>
<path d="M4225 675 c-33 -7 -125 -41 -205 -74 -136 -58 -279 -109 -413 -146
-32 -9 -56 -19 -54 -22 13 -12 279 76 447 148 166 70 232 90 335 99 l80 7 -65
1 c-36 0 -92 -6 -125 -13z"/>
<path d="M5676 641 c38 -10 153 -55 254 -100 101 -44 186 -78 188 -76 5 4 -76
42 -233 110 -126 54 -184 73 -238 80 -29 4 -21 0 29 -14z"/>
<path d="M3903 327 c-68 -11 -123 -23 -123 -27 0 -4 57 3 128 16 196 34 182
31 147 32 -16 0 -85 -9 -152 -21z"/>
<path d="M4140 330 c30 -5 73 -8 95 -8 39 1 38 1 -10 8 -27 5 -70 8 -95 8
l-45 -1 55 -7z"/>
</g>
</svg>
